<svg width="2843" height="1402" version="1.1" xmlns="http://www.w3.org/2000/svg" ><path fill="rgb(0,0,0)" stroke="rgb(0,0,0)" stroke-width="1" opacity="0.9882352941176471" d="M 622.5 1 L 634.5 1 L 640.5 3 L 645.5 3 L 667.5 8 L 688.5 11 Q 696.8 12.7 701 18.5 L 705 26.5 Q 703.2 32.8 706 34.5 L 706 45.5 L 707 46.5 L 707 58.5 L 708 59.5 L 708 71.5 L 709 72.5 L 710 94 Q 748 106.8 777.5 129 L 829.5 98 Q 835.4 92.9 846.5 93 Q 860.5 96.5 867 107.5 L 901 143.5 Q 906 149 904 161.5 L 868 220.5 Q 883 242 894 267.5 L 902 289 L 967.5 295 Q 977.5 297 982 304.5 L 986 317.5 L 986 324.5 L 988 332.5 L 988 339.5 L 990 347.5 L 993 375.5 Q 991.1 384.1 985.5 389 L 978.5 393 L 921 416 L 918 450.5 L 909 491.5 L 960 537.5 Q 964.2 542.8 964 552.5 L 956 570.5 L 936 607.5 L 927.5 618 Q 922 622.5 910.5 621 L 889.5 615 L 885.5 615 L 848 606 Q 834.8 624.5 817.5 640 L 795 658 L 799 681.5 L 809 723.5 L 809 730.5 Q 807.3 738.8 801.5 743 L 744.5 771 Q 739.7 773.2 731.5 772 Q 722.4 769.5 718 762.5 L 679.5 717 L 641.5 725 L 625.5 726 L 624.5 727 L 612.5 727 Q 610.8 729.8 604.5 728 L 603 729.5 L 580 783.5 L 572.5 795 Q 567.1 799.6 557.5 800 L 497.5 789 Q 490.1 786.9 486 781.5 L 482 773.5 Q 483.7 767.3 481 765.5 L 481 753.5 L 480 752.5 L 480 741.5 L 479 740.5 L 479 728.5 L 478 727.5 L 477 706 L 457.5 699 Q 431.8 687.7 410.5 672 L 407.5 672 L 352.5 705 Q 347.9 707.9 339.5 707 L 330.5 703 L 318 690.5 L 286 656.5 Q 281.2 651.3 283 639.5 L 286 632.5 L 319 579.5 Q 297.6 549.1 285 511 L 218.5 505 Q 209.4 502.5 205 495.5 L 201 482.5 L 201 475.5 L 199 467.5 L 199 460.5 L 197 452.5 L 194 424.5 Q 196.3 413.8 204.5 409 L 266 384 L 269 349.5 L 278 308.5 L 227 262.5 L 223 253.5 L 223 247.5 L 229 233.5 L 250 194.5 L 258.5 183 Q 263.8 177.8 275.5 179 L 317.5 190 L 338.5 194 L 365.5 164 L 392 141.5 L 388 118.5 L 378 76.5 L 378 69.5 L 384.5 58 L 442.5 29 Q 447.2 26.8 455.5 28 Q 463.5 30.5 468 36.5 L 507.5 83 L 540.5 76 L 563.5 74 L 564.5 73 L 578.5 73 L 584 70.5 L 608 14.5 Q 611 7 617.5 3 L 622.5 1 Z M 574 173 L 573 174 L 552 176 L 534 180 L 503 191 Q 466 207 439 233 Q 406 263 386 306 Q 376 326 371 351 L 368 367 L 368 374 L 367 375 L 367 385 L 366 386 L 366 416 L 367 417 L 367 427 L 372 455 L 379 478 Q 395 521 424 553 Q 454 585 496 606 Q 518 617 546 623 L 563 626 L 570 626 L 571 627 L 586 627 L 587 628 L 617 627 L 618 626 L 632 625 L 651 621 L 673 614 Q 715 598 746 570 Q 781 538 802 493 L 815 455 L 820 427 L 820 417 L 821 416 L 821 385 L 820 384 L 820 374 L 815 346 L 808 323 Q 791 277 761 246 Q 725 206 670 185 L 646 178 L 623 174 L 615 174 L 614 173 L 574 173 Z " /><path fill="rgb(0,0,0)" stroke="rgb(0,0,0)" stroke-width="1" opacity="0.9882352941176471" d="M 223.5 693 Q 235 693 240 699.5 L 274.5 751 L 299.5 750 L 300.5 751 L 323.5 752 L 341.5 756 L 382.5 706 L 390.5 703 L 395.5 703 L 447.5 728 L 455 735.5 Q 457.9 740.1 457 748.5 L 445 806.5 L 463 823.5 Q 478.6 838.8 489 858 L 492.5 857 L 500.5 857 L 501.5 856 L 509.5 856 L 510.5 855 L 518.5 855 L 519.5 854 L 551.5 851 Q 561.5 853 566 860.5 L 584 913.5 L 584 922.5 L 577.5 933 L 526 967.5 L 527 969.5 L 527 1001.5 L 526 1002.5 L 526 1012.5 L 522 1034.5 L 571 1074.5 Q 575.7 1079.3 574 1090.5 L 549 1140.5 L 545.5 1145 Q 540.5 1150 530.5 1150 L 505.5 1144 L 475.5 1138 L 470.5 1138 L 451.5 1158 L 420 1182.5 L 424 1224.5 L 425 1225.5 L 425 1234.5 L 426 1235.5 L 426 1246.5 L 419.5 1257 L 362.5 1277 L 356.5 1277 Q 348.2 1275.3 344 1269.5 L 310.5 1219 L 281.5 1220 L 280.5 1219 L 268.5 1219 L 267.5 1218 L 260.5 1218 L 259.5 1217 L 242.5 1215 L 202.5 1264 Q 198.1 1268 188.5 1267 L 137.5 1242 L 132 1237.5 Q 126.7 1232.8 128 1221.5 L 140 1163.5 L 119 1143.5 L 94.5 1112 L 93.5 1113 L 85.5 1113 L 84.5 1114 L 32.5 1119 Q 24.9 1117.5 21 1112.5 L 18 1107.5 L 1 1056.5 L 1 1047.5 L 7.5 1037 L 58 1003.5 L 58 967.5 L 59 966.5 L 59 957.5 L 63 935.5 L 20.5 902 L 13 894.5 Q 9.6 889.4 11 879.5 L 36 829.5 L 39.5 825 Q 44.8 818.8 58.5 821 L 113.5 833 L 132.5 813 L 165 787.5 L 162 755.5 L 161 754.5 L 161 746.5 L 160 745.5 L 160 737.5 L 159 736.5 L 159 723.5 L 164.5 714 L 171.5 710 L 223.5 693 Z M 276 830 L 254 834 L 233 841 Q 208 852 190 868 Q 169 885 156 910 Q 147 925 142 944 L 137 973 L 137 998 L 142 1027 Q 153 1062 174 1087 Q 195 1111 226 1126 Q 242 1134 262 1138 L 274 1139 L 275 1140 L 287 1140 L 288 1141 L 311 1140 L 312 1139 L 324 1138 L 348 1131 Q 375 1120 396 1102 Q 420 1080 435 1049 L 445 1018 L 447 1007 L 447 998 L 448 997 L 447 964 L 439 932 Q 428 903 409 882 Q 384 853 345 838 L 328 833 L 311 831 L 310 830 L 276 830 Z " /><path fill="rgb(0,0,0)" stroke="rgb(0,0,0)" stroke-width="1" opacity="0.9882352941176471" d="M 794.5 969 L 802.5 970 L 840.5 987 Q 847.8 989.2 852 994.5 Q 855.4 999.6 854 1009.5 L 852 1015.5 L 852 1020.5 L 849 1031.5 L 849 1036.5 L 844 1061.5 L 860 1076.5 Q 876.3 1094 886 1117 L 893.5 1117 L 894.5 1118 L 909.5 1118 L 910.5 1119 L 924.5 1119 L 925.5 1120 L 940.5 1120 L 949.5 1123 L 954 1127.5 L 957 1135.5 L 958 1154.5 L 959 1155.5 L 960 1173.5 L 961 1174.5 L 961 1187.5 L 953.5 1196 L 901.5 1214 L 898 1216.5 L 896 1228.5 L 890 1246.5 Q 882.4 1265.4 871 1280.5 L 896 1329.5 L 897 1341.5 L 892.5 1349 L 852.5 1378 Q 849.2 1380.7 842.5 1380 L 832.5 1375 L 791.5 1340 L 780.5 1344 L 761.5 1348 Q 756 1346.5 754.5 1349 L 722.5 1349 L 721 1350.5 L 693 1393.5 L 686.5 1400 Q 682.9 1402.9 675.5 1402 L 629.5 1382 L 623 1376.5 Q 619.6 1371.4 621 1361.5 L 625 1345.5 L 625 1340.5 L 629 1324.5 L 631 1309 L 629.5 1309 L 614 1293.5 Q 598.1 1276.5 589 1254 L 563.5 1253 L 562.5 1252 L 547.5 1252 L 546.5 1251 L 533.5 1251 Q 524.3 1249.3 520 1242.5 L 518 1235.5 L 517 1216.5 L 516 1215.5 L 515 1197.5 L 514 1196.5 L 514 1184.5 L 520.5 1176 L 577 1156 Q 583.2 1117 604 1091.5 L 579 1041.5 L 578 1029.5 Q 579.6 1022.6 585.5 1020 L 624.5 992 L 631.5 991 L 643.5 997 L 678.5 1028 L 684.5 1031 L 691.5 1028 L 714.5 1023 Q 720.8 1024.8 722.5 1022 L 752.5 1022 L 755 1019.5 L 783 976.5 L 787.5 972 L 794.5 969 Z M 730 1089 L 729 1090 L 717 1091 L 701 1096 Q 686 1102 675 1112 Q 662 1122 654 1137 L 645 1157 L 641 1177 L 641 1195 L 644 1212 Q 651 1232 663 1248 Q 673 1259 687 1268 L 703 1276 L 716 1280 L 727 1281 L 728 1282 L 748 1282 L 764 1279 Q 785 1273 800 1260 Q 811 1250 820 1237 L 828 1221 L 832 1208 L 833 1197 L 834 1196 L 834 1176 L 831 1160 Q 824 1138 811 1123 Q 797 1105 775 1096 L 754 1090 L 730 1089 Z " /><path fill="rgb(0,0,0)" stroke="rgb(0,0,0)" stroke-width="1" opacity="0.9882352941176471" d="M 1805.5 1034 L 1824.5 1034 L 1833.5 1036 L 1853 1046 L 1853 1036 L 1867 1036 L 1867 1069 L 1852.5 1069 L 1842.5 1057 L 1826.5 1049 L 1811.5 1048 L 1802.5 1050 L 1788 1059.5 L 1779 1074.5 Q 1776.3 1082.8 1778 1095.5 Q 1781.9 1110.1 1792.5 1118 L 1806.5 1125 L 1821.5 1126 Q 1839.9 1122.9 1849 1110.5 L 1856.5 1097 L 1870 1103 Q 1866.9 1118.6 1855.5 1127 Q 1839.3 1142.3 1805.5 1140 Q 1781.2 1135.8 1769 1119.5 Q 1758.3 1107.2 1758 1084.5 L 1759 1083.5 L 1760 1072.5 L 1766 1058.5 L 1779.5 1044 L 1790.5 1038 L 1805.5 1034 Z " /><path fill="rgb(0,0,0)" stroke="rgb(0,0,0)" stroke-width="1" opacity="0.9882352941176471" d="M 2376.5 1034 L 2396.5 1034 L 2401.5 1035 Q 2416.2 1038.4 2426 1046 L 2426 1036 L 2440 1036 L 2440 1069 L 2425 1069 Q 2422.6 1061.4 2415.5 1057 L 2398.5 1049 L 2382.5 1048 Q 2381.3 1050.3 2376.5 1049 L 2364.5 1054 L 2355 1062.5 L 2348 1077.5 L 2348 1095.5 Q 2351.9 1110.1 2362.5 1118 L 2377.5 1125 L 2394.5 1126 Q 2395.8 1123.7 2400.5 1125 L 2412.5 1120 L 2421 1112.5 L 2426 1101 L 2405 1101 L 2405 1088 L 2446.5 1088 L 2447 1088.5 L 2447 1095.5 Q 2444.5 1097 2446 1102.5 L 2442 1113.5 Q 2437.1 1123.1 2428.5 1129 Q 2419.2 1136.2 2405.5 1139 L 2400.5 1140 L 2378.5 1140 L 2368.5 1138 L 2353.5 1132 L 2339 1119.5 Q 2328.3 1107.2 2328 1084.5 L 2329 1083.5 L 2330 1072.5 L 2336 1058.5 L 2348.5 1045 L 2363.5 1037 L 2376.5 1034 Z " /><path fill="rgb(0,0,0)" stroke="rgb(0,0,0)" stroke-width="1" opacity="0.9882352941176471" d="M 1003 1036 L 1042.5 1036 L 1043 1037.5 L 1072.5 1105 L 1102 1036 L 1141.5 1036 L 1142 1036.5 L 1142 1049 L 1128.5 1049 L 1128 1049.5 L 1128 1126 L 1142 1126 L 1142 1138 L 1099.5 1138 L 1099 1137.5 L 1099 1126 L 1111.5 1126 L 1112 1125.5 L 1112 1052.5 L 1111 1052.5 L 1074 1140 Q 1070.2 1141 1069 1138.5 L 1032.5 1052 L 1032 1126 L 1044 1126 L 1044 1138 L 1003.5 1138 L 1003 1137.5 L 1003 1126 L 1016.5 1126 L 1017 1125.5 L 1017 1049 L 1003 1049 L 1003 1036 Z " /><path fill="rgb(0,0,0)" stroke="rgb(0,0,0)" stroke-width="1" opacity="0.9882352941176471" d="M 1148 1036 L 1242.5 1036 L 1243 1036.5 L 1243 1065 L 1228 1065 L 1228 1048.5 L 1227.5 1048 L 1180 1048 L 1180 1079 L 1222.5 1079 L 1223 1079.5 L 1223 1091 L 1180 1091 L 1180 1126 L 1227.5 1126 L 1228 1125.5 L 1228 1107 L 1243 1107 L 1243 1137.5 L 1242.5 1138 L 1148 1138 L 1148 1126 L 1162.5 1126 L 1163 1125.5 L 1163 1048 L 1148 1048 L 1148 1036 Z " /><path fill="rgb(0,0,0)" stroke="rgb(0,0,0)" stroke-width="1" opacity="0.9882352941176471" d="M 1254 1036 L 1295.5 1036 L 1296 1036.5 L 1296 1048 L 1284.5 1048 L 1284 1048.5 L 1284 1126 L 1296 1126 L 1296 1138 L 1254.5 1138 L 1254 1137.5 L 1254 1126 L 1265.5 1126 L 1266 1125.5 L 1266 1048 L 1254 1048 L 1254 1036 Z " /><path fill="rgb(0,0,0)" stroke="rgb(0,0,0)" stroke-width="1" opacity="0.9882352941176471" d="M 1303 1036 L 1397.5 1036 L 1398 1036.5 L 1398 1065 L 1383 1065 L 1383 1048.5 L 1382.5 1048 L 1335 1048 L 1335 1079 L 1377.5 1079 L 1378 1079.5 L 1378 1091 L 1335 1091 L 1335 1126 L 1382.5 1126 L 1383 1125.5 L 1383 1107 L 1398 1107 L 1398 1137.5 L 1397.5 1138 L 1303 1138 L 1303 1126 L 1317.5 1126 L 1318 1125.5 L 1318 1048 L 1303 1048 L 1303 1036 Z " /><path fill="rgb(0,0,0)" stroke="rgb(0,0,0)" stroke-width="1" opacity="0.9882352941176471" d="M 1404 1036 L 1464.5 1036 L 1477.5 1039 Q 1485.6 1041.9 1490 1048.5 Q 1494.8 1055.7 1493 1069.5 Q 1490.3 1079.3 1482.5 1084 L 1470 1089.5 L 1490.5 1126 L 1504 1126 L 1504 1138 L 1478.5 1138 L 1477 1136.5 L 1452.5 1091 L 1437 1091 L 1437 1126 L 1452 1126 L 1452 1138 L 1404.5 1138 L 1404 1137.5 L 1404 1126 L 1419.5 1126 L 1420 1125.5 L 1420 1048 L 1404 1048 L 1404 1036 Z M 1437 1048 L 1437 1078 L 1459 1078 L 1470 1075 L 1475 1068 Q 1477 1059 1474 1056 L 1466 1049 Q 1461 1050 1460 1048 L 1437 1048 Z " /><path fill="rgb(0,0,0)" stroke="rgb(0,0,0)" stroke-width="1" opacity="0.9882352941176471" d="M 1552 1036 L 1644 1036 L 1644 1073 L 1630 1073 L 1630 1048 L 1607 1048 L 1607 1125.5 L 1607.5 1126 L 1621 1126 L 1621 1138 L 1575.5 1138 L 1575 1137.5 L 1575 1126 L 1588.5 1126 L 1589 1125.5 L 1589 1048 L 1566 1048 L 1566 1073 L 1552 1073 L 1552 1036 Z " /><path fill="rgb(0,0,0)" stroke="rgb(0,0,0)" stroke-width="1" opacity="0.9882352941176471" d="M 1651 1036 L 1745.5 1036 L 1746 1036.5 L 1746 1065 L 1731 1065 L 1731 1048.5 L 1730.5 1048 L 1683 1048 L 1683 1079 L 1725.5 1079 L 1726 1079.5 L 1726 1091 L 1683 1091 L 1683 1126 L 1730.5 1126 L 1731 1125.5 L 1731 1107 L 1746 1107 L 1746 1137.5 L 1745.5 1138 L 1651 1138 L 1651 1126 L 1665.5 1126 L 1666 1125.5 L 1666 1048 L 1651 1048 L 1651 1036 Z " /><path fill="rgb(0,0,0)" stroke="rgb(0,0,0)" stroke-width="1" opacity="0.9882352941176471" d="M 1883 1036 L 1926.5 1036 L 1927 1036.5 L 1927 1048 L 1913 1048 L 1913 1078 L 1962 1078 L 1962 1048 L 1949 1048 L 1949 1036 L 1992.5 1036 L 1993 1036.5 L 1993 1048 L 1980.5 1048 L 1980 1048.5 L 1980 1126 L 1993 1126 L 1993 1138 L 1949.5 1138 L 1949 1137.5 L 1949 1126 L 1962 1126 L 1962 1090 L 1913 1090 L 1913 1126 L 1927 1126 L 1927 1138 L 1883.5 1138 L 1883 1137.5 L 1883 1126 L 1895.5 1126 L 1896 1125.5 L 1896 1048 L 1883 1048 L 1883 1036 Z " /><path fill="rgb(0,0,0)" stroke="rgb(0,0,0)" stroke-width="1" opacity="0.9882352941176471" d="M 2000 1036 L 2039.5 1036 L 2040 1037.5 L 2088.5 1114 L 2089 1048 L 2072 1048 L 2072 1036 L 2118.5 1036 L 2119 1036.5 L 2119 1048 L 2103.5 1048 L 2103 1048.5 L 2103 1140 L 2084 1140 L 2031.5 1054 L 2031 1126 L 2047 1126 L 2047 1138 L 2000.5 1138 L 2000 1137.5 L 2000 1126 L 2015.5 1126 L 2016 1125.5 L 2016 1048 L 2000 1048 L 2000 1036 Z " /><path fill="rgb(0,0,0)" stroke="rgb(0,0,0)" stroke-width="1" opacity="0.9882352941176471" d="M 2127 1036 L 2168.5 1036 L 2169 1036.5 L 2169 1048 L 2157.5 1048 L 2157 1048.5 L 2157 1126 L 2169 1126 L 2169 1138 L 2127.5 1138 L 2127 1137.5 L 2127 1126 L 2138.5 1126 L 2139 1125.5 L 2139 1048 L 2127 1048 L 2127 1036 Z " /><path fill="rgb(0,0,0)" stroke="rgb(0,0,0)" stroke-width="1" opacity="0.9882352941176471" d="M 2177 1036 L 2222.5 1036 L 2223 1036.5 L 2223 1048 L 2208.5 1048 L 2208 1048.5 L 2208 1126 L 2222 1126 L 2222 1138 L 2177.5 1138 L 2177 1137.5 L 2177 1126 L 2190.5 1126 L 2191 1125.5 L 2191 1048 L 2177 1048 L 2177 1036 Z " /><path fill="rgb(0,0,0)" stroke="rgb(0,0,0)" stroke-width="1" opacity="0.9882352941176471" d="M 2232 1036 L 2276.5 1036 L 2277 1036.5 L 2277 1048 L 2264.5 1048 L 2257 1055.5 L 2230 1084.5 L 2265.5 1126 L 2278 1126 L 2278 1138 L 2231.5 1138 L 2231 1137.5 L 2231 1126 L 2242.5 1126 L 2243 1124.5 L 2210 1084.5 L 2244 1048.5 L 2232 1048 L 2232 1036 Z " /><path fill="rgb(0,0,0)" stroke="rgb(0,0,0)" stroke-width="1" opacity="0.9882352941176471" d="M 2458 1036 L 2497.5 1036 L 2498 1037.5 L 2527.5 1105 L 2557 1036 L 2596.5 1036 L 2597 1036.5 L 2597 1049 L 2583.5 1049 L 2583 1049.5 L 2583 1126 L 2597 1126 L 2597 1138 L 2554.5 1138 L 2554 1137.5 L 2554 1126 L 2566.5 1126 L 2567 1125.5 L 2567 1052.5 L 2566 1052.5 L 2529 1140 Q 2525.2 1141 2524 1138.5 L 2487.5 1052 L 2487 1126 L 2499 1126 L 2499 1138 L 2458.5 1138 L 2458 1137.5 L 2458 1126 L 2471.5 1126 L 2472 1125.5 L 2472 1049 L 2458 1049 L 2458 1036 Z " /><path fill="rgb(0,0,0)" stroke="rgb(0,0,0)" stroke-width="1" opacity="0.9882352941176471" d="M 2605 1036 L 2656.5 1036 L 2669.5 1039 L 2681 1046.5 Q 2687.2 1052.8 2686 1066.5 Q 2684.2 1076.2 2677.5 1081 L 2673 1083.5 Q 2682.9 1086.6 2688 1094.5 L 2692 1104.5 L 2692 1112.5 Q 2689.8 1124.3 2681.5 1130 L 2676.5 1133 L 2657.5 1138 L 2605 1138 L 2605 1126 L 2618.5 1126 L 2619 1125.5 L 2619 1048 L 2605 1048 L 2605 1036 Z M 2636 1048 L 2636 1079 L 2653 1079 L 2664 1075 L 2668 1070 L 2669 1065 L 2667 1056 L 2658 1049 L 2636 1048 Z M 2636 1091 L 2636 1126 L 2660 1125 L 2668 1122 Q 2672 1119 2674 1113 Q 2676 1104 2672 1100 Q 2668 1093 2660 1092 L 2636 1091 Z " /><path fill="rgb(0,0,0)" stroke="rgb(0,0,0)" stroke-width="1" opacity="0.9882352941176471" d="M 2701 1036 L 2744.5 1036 L 2745 1036.5 L 2745 1048 L 2731 1048 L 2731 1078 L 2780 1078 L 2780 1048 L 2767 1048 L 2767 1036 L 2810.5 1036 L 2811 1036.5 L 2811 1048 L 2798.5 1048 L 2798 1048.5 L 2798 1126 L 2811 1126 L 2811 1138 L 2767.5 1138 L 2767 1137.5 L 2767 1126 L 2780 1126 L 2780 1090 L 2731 1090 L 2731 1126 L 2745 1126 L 2745 1138 L 2701.5 1138 L 2701 1137.5 L 2701 1126 L 2713.5 1126 L 2714 1125.5 L 2714 1048 L 2701 1048 L 2701 1036 Z " /><path fill="rgb(0,0,0)" stroke="rgb(0,0,0)" stroke-width="1" opacity="0" d="M 0 0 L 2843 0 L 2843 1402 L 682 1401.5 Q 689.9 1399.9 693 1393.5 L 722.5 1349 L 754.5 1349 L 755.5 1348 L 772.5 1346 L 792.5 1340 L 832.5 1375 Q 837.5 1380 847.5 1380 L 852.5 1378 L 894 1347.5 Q 898.5 1343 897 1332.5 L 871 1280.5 L 887 1253.5 L 896 1228.5 L 898 1216.5 L 899.5 1215 L 949.5 1198 L 960 1189.5 L 961 1187.5 L 961 1174.5 L 960 1173.5 L 960 1164.5 L 958 1154.5 L 957 1135.5 Q 955.5 1127 949.5 1123 L 940.5 1120 L 925.5 1120 L 924.5 1119 L 910.5 1119 L 909.5 1118 L 894.5 1118 L 893.5 1117 L 886 1117 Q 872 1084.8 846.5 1063 L 844 1061.5 L 849 1036.5 L 849 1031.5 L 852 1020.5 L 852 1015.5 L 854 1009.5 L 854 999.5 Q 852.8 993.8 848.5 991 L 802.5 970 L 794.5 969 Q 786.2 970.2 783 976.5 L 752.5 1022 L 722.5 1022 Q 720.8 1024.8 714.5 1023 L 682.5 1031 L 639.5 994 Q 635.5 991 628.5 991 L 618.5 996 L 585.5 1020 L 579 1026.5 L 578 1038.5 L 604 1091.5 Q 583.2 1117 577 1156 L 526.5 1173 Q 519.8 1175.3 516 1180.5 Q 512 1185.5 514 1196.5 L 515 1197.5 L 515 1206.5 L 517 1216.5 L 518 1235.5 L 520 1242.5 L 525.5 1248 L 533.5 1251 L 546.5 1251 L 547.5 1252 L 562.5 1252 L 563.5 1253 L 589 1254 Q 603.3 1286.8 629.5 1309 Q 632.9 1308.1 631 1313.5 L 621 1361.5 L 621 1371.5 Q 622.5 1378 627.5 1381 L 675 1401.5 L 0 1402 L 0 0 Z M 623 1 L 618 3 Q 611 7 608 15 L 584 71 L 579 73 L 565 73 L 564 74 L 541 76 L 508 83 L 468 37 Q 464 31 456 28 Q 447 27 443 29 L 385 58 L 378 70 L 378 77 L 388 119 L 392 142 L 366 164 L 339 194 L 318 190 L 276 179 Q 264 178 259 183 L 250 195 L 229 234 L 223 248 L 223 254 L 227 263 L 278 309 L 269 350 L 266 384 L 205 409 Q 196 414 194 425 L 197 453 L 199 461 L 199 468 L 201 476 L 201 483 L 205 496 Q 209 503 219 505 L 285 511 Q 298 549 319 580 L 286 633 L 283 640 Q 281 651 286 657 L 318 691 L 331 703 L 340 707 Q 348 708 353 705 L 408 672 L 411 672 Q 432 688 458 699 L 477 706 L 478 728 L 479 729 L 479 741 L 480 742 L 480 753 L 481 754 L 481 766 Q 484 767 482 774 L 486 782 Q 490 787 498 789 L 558 800 Q 567 800 573 795 L 580 784 L 603 730 L 605 728 Q 611 730 613 727 L 625 727 L 626 726 L 642 725 L 680 717 L 718 763 Q 722 770 732 772 Q 740 773 745 771 L 802 743 Q 807 739 809 731 L 809 724 L 799 682 L 795 658 L 818 640 Q 835 625 848 606 L 886 615 L 890 615 L 911 621 Q 922 623 928 618 L 936 608 L 956 571 L 964 553 Q 964 543 960 538 L 909 492 L 918 451 L 921 416 L 979 393 L 986 389 Q 991 384 993 376 L 990 348 L 988 340 L 988 333 L 986 325 L 986 318 L 982 305 Q 977 297 968 295 L 902 289 L 894 268 Q 883 242 868 221 L 904 162 Q 906 149 901 144 L 867 108 Q 861 97 847 93 Q 835 93 830 98 L 778 129 Q 748 107 710 94 L 709 73 L 708 72 L 708 60 L 707 59 L 707 47 L 706 46 L 706 35 Q 703 33 705 27 L 701 19 Q 697 13 689 11 L 668 8 L 646 3 L 641 3 L 635 1 L 623 1 Z M 2520 466 L 2519 467 L 2510 467 L 2509 468 L 2496 469 L 2470 475 L 2431 490 Q 2394 509 2366 537 Q 2333 568 2314 612 Q 2305 633 2299 658 L 2294 686 L 2293 706 L 2292 707 L 2292 753 L 2293 754 L 2293 765 L 2294 766 L 2294 773 L 2298 796 L 2305 822 Q 2322 873 2354 911 Q 2385 947 2434 967 L 2458 976 L 2491 985 L 2512 989 L 2525 990 L 2526 991 L 2547 992 L 2548 993 L 2602 993 L 2603 992 L 2612 992 L 2613 991 L 2632 989 L 2654 984 L 2688 972 L 2704 964 Q 2723 953 2739 939 Q 2775 906 2797 858 L 2804 838 L 2808 819 L 2810 799 L 2811 798 L 2811 789 L 2812 788 L 2813 758 L 2814 757 L 2814 714 L 2814 713 L 2600 713 L 2600 811 L 2649 811 Q 2649 842 2635 860 L 2623 870 L 2609 876 L 2599 878 L 2572 878 L 2562 876 Q 2544 871 2533 861 Q 2515 846 2508 821 L 2502 792 L 2501 774 L 2500 773 L 2500 756 L 2499 755 L 2499 714 L 2500 713 L 2501 685 L 2502 684 L 2504 664 L 2511 637 Q 2515 624 2523 615 Q 2531 604 2542 598 L 2558 591 L 2572 588 L 2601 588 L 2615 591 Q 2635 597 2650 610 Q 2669 627 2680 653 L 2682 654 L 2797 654 L 2797 476 L 2681 476 L 2681 510 Q 2654 485 2615 474 L 2593 469 L 2580 468 L 2579 467 L 2570 467 L 2569 466 L 2520 466 Z M 1001 476 L 1001 598 L 1002 598 L 1039 598 L 1039 863 L 1039 863 L 1002 863 L 1002 985 L 1187 985 L 1187 864 L 1187 863 L 1150 863 L 1151 588 L 1290 984 L 1292 985 L 1364 985 L 1505 585 L 1506 585 L 1506 863 L 1506 863 L 1468 863 L 1468 985 L 1718 985 L 1718 864 L 1718 863 L 1679 863 L 1679 599 L 1680 598 L 1717 598 L 1717 476 L 1431 476 L 1422 497 L 1362 664 L 1359 670 L 1290 478 L 1289 476 L 1001 476 Z M 1765 476 L 1765 691 L 1856 691 L 1856 598 L 1909 598 L 1909 863 L 1909 863 L 1868 863 L 1868 985 L 2137 985 L 2137 863 L 2095 863 L 2094 863 L 2094 598 L 2148 598 L 2148 691 L 2238 691 L 2238 476 L 1765 476 Z M 224 693 L 172 710 L 165 714 L 159 724 L 159 737 L 160 738 L 160 746 L 161 747 L 161 755 L 162 756 L 165 788 L 133 813 L 114 833 L 59 821 Q 45 819 40 825 L 36 830 L 11 880 Q 10 889 13 895 L 21 902 L 63 936 L 59 958 L 59 967 L 58 968 L 58 1004 L 8 1037 L 1 1048 L 1 1057 L 18 1108 L 21 1113 Q 25 1118 33 1119 L 85 1114 L 86 1113 L 94 1113 L 95 1112 L 119 1144 L 140 1164 L 128 1222 Q 127 1233 132 1238 L 138 1242 L 189 1267 Q 198 1268 203 1264 L 243 1215 L 260 1217 L 261 1218 L 268 1218 L 269 1219 L 281 1219 L 282 1220 L 311 1219 L 344 1270 Q 348 1275 357 1277 L 363 1277 L 420 1257 L 426 1247 L 426 1236 L 425 1235 L 425 1226 L 424 1225 L 420 1183 L 452 1158 L 471 1138 L 476 1138 L 506 1144 L 531 1150 Q 541 1150 546 1145 L 549 1141 L 574 1091 Q 576 1079 571 1075 L 522 1035 L 526 1013 L 526 1003 L 527 1002 L 527 970 L 526 968 L 578 933 L 584 923 L 584 914 L 566 861 Q 561 853 552 851 L 520 854 L 519 855 L 511 855 L 510 856 L 502 856 L 501 857 L 493 857 L 489 858 Q 479 839 463 824 L 445 807 L 457 749 Q 458 740 455 736 L 448 728 L 396 703 L 391 703 L 383 706 L 342 756 L 324 752 L 301 751 L 300 750 L 275 751 L 240 700 Q 235 693 224 693 Z M 1806 1034 L 1791 1038 L 1780 1044 L 1766 1059 L 1760 1073 L 1759 1084 L 1758 1085 Q 1758 1107 1769 1120 Q 1781 1136 1806 1140 Q 1839 1142 1856 1127 Q 1867 1119 1870 1103 L 1857 1097 L 1849 1111 Q 1840 1123 1822 1126 L 1807 1125 L 1793 1118 Q 1782 1110 1778 1096 Q 1776 1083 1779 1075 L 1788 1060 L 1803 1050 L 1812 1048 L 1827 1049 L 1843 1057 L 1853 1069 L 1867 1069 L 1867 1036 L 1853 1036 L 1853 1046 L 1834 1036 L 1825 1034 L 1806 1034 Z M 2377 1034 L 2364 1037 L 2349 1045 L 2336 1059 L 2330 1073 L 2329 1084 L 2328 1085 Q 2328 1107 2339 1120 L 2354 1132 L 2369 1138 L 2379 1140 L 2401 1140 L 2406 1139 Q 2419 1136 2429 1129 Q 2437 1123 2442 1114 L 2446 1103 Q 2445 1097 2447 1096 L 2447 1089 L 2447 1088 L 2405 1088 L 2405 1101 L 2426 1101 L 2421 1113 L 2413 1120 L 2401 1125 Q 2396 1124 2395 1126 L 2378 1125 L 2363 1118 Q 2352 1110 2348 1096 L 2348 1078 L 2355 1063 L 2365 1054 L 2377 1049 Q 2381 1050 2383 1048 L 2399 1049 L 2416 1057 Q 2423 1061 2425 1069 L 2440 1069 L 2440 1036 L 2426 1036 L 2426 1046 Q 2416 1038 2402 1035 L 2397 1034 L 2377 1034 Z M 1003 1036 L 1003 1049 L 1017 1049 L 1017 1126 L 1017 1126 L 1003 1126 L 1003 1138 L 1004 1138 L 1044 1138 L 1044 1126 L 1032 1126 L 1033 1052 L 1069 1139 Q 1070 1141 1074 1140 L 1111 1053 L 1112 1053 L 1112 1126 L 1112 1126 L 1099 1126 L 1099 1138 L 1100 1138 L 1142 1138 L 1142 1126 L 1128 1126 L 1128 1050 L 1129 1049 L 1142 1049 L 1142 1037 L 1142 1036 L 1102 1036 L 1073 1105 L 1043 1038 L 1043 1036 L 1003 1036 Z M 1148 1036 L 1148 1048 L 1163 1048 L 1163 1126 L 1163 1126 L 1148 1126 L 1148 1138 L 1243 1138 L 1243 1138 L 1243 1107 L 1228 1107 L 1228 1126 L 1228 1126 L 1180 1126 L 1180 1091 L 1223 1091 L 1223 1080 L 1223 1079 L 1180 1079 L 1180 1048 L 1228 1048 L 1228 1049 L 1228 1065 L 1243 1065 L 1243 1037 L 1243 1036 L 1148 1036 Z M 1254 1036 L 1254 1048 L 1266 1048 L 1266 1126 L 1266 1126 L 1254 1126 L 1254 1138 L 1255 1138 L 1296 1138 L 1296 1126 L 1284 1126 L 1284 1049 L 1285 1048 L 1296 1048 L 1296 1037 L 1296 1036 L 1254 1036 Z M 1303 1036 L 1303 1048 L 1318 1048 L 1318 1126 L 1318 1126 L 1303 1126 L 1303 1138 L 1398 1138 L 1398 1138 L 1398 1107 L 1383 1107 L 1383 1126 L 1383 1126 L 1335 1126 L 1335 1091 L 1378 1091 L 1378 1080 L 1378 1079 L 1335 1079 L 1335 1048 L 1383 1048 L 1383 1049 L 1383 1065 L 1398 1065 L 1398 1037 L 1398 1036 L 1303 1036 Z M 1404 1036 L 1404 1048 L 1420 1048 L 1420 1126 L 1420 1126 L 1404 1126 L 1404 1138 L 1405 1138 L 1452 1138 L 1452 1126 L 1437 1126 L 1437 1091 L 1453 1091 L 1477 1137 L 1479 1138 L 1504 1138 L 1504 1126 L 1491 1126 L 1470 1090 L 1483 1084 Q 1490 1079 1493 1070 Q 1495 1056 1490 1049 Q 1486 1042 1478 1039 L 1465 1036 L 1404 1036 Z M 1552 1036 L 1552 1073 L 1566 1073 L 1566 1048 L 1589 1048 L 1589 1126 L 1589 1126 L 1575 1126 L 1575 1138 L 1576 1138 L 1621 1138 L 1621 1126 L 1608 1126 L 1607 1126 L 1607 1048 L 1630 1048 L 1630 1073 L 1644 1073 L 1644 1036 L 1552 1036 Z M 1651 1036 L 1651 1048 L 1666 1048 L 1666 1126 L 1666 1126 L 1651 1126 L 1651 1138 L 1746 1138 L 1746 1138 L 1746 1107 L 1731 1107 L 1731 1126 L 1731 1126 L 1683 1126 L 1683 1091 L 1726 1091 L 1726 1080 L 1726 1079 L 1683 1079 L 1683 1048 L 1731 1048 L 1731 1049 L 1731 1065 L 1746 1065 L 1746 1037 L 1746 1036 L 1651 1036 Z M 1883 1036 L 1883 1048 L 1896 1048 L 1896 1126 L 1896 1126 L 1883 1126 L 1883 1138 L 1884 1138 L 1927 1138 L 1927 1126 L 1913 1126 L 1913 1090 L 1962 1090 L 1962 1126 L 1949 1126 L 1949 1138 L 1950 1138 L 1993 1138 L 1993 1126 L 1980 1126 L 1980 1049 L 1981 1048 L 1993 1048 L 1993 1037 L 1993 1036 L 1949 1036 L 1949 1048 L 1962 1048 L 1962 1078 L 1913 1078 L 1913 1048 L 1927 1048 L 1927 1037 L 1927 1036 L 1883 1036 Z M 2000 1036 L 2000 1048 L 2016 1048 L 2016 1126 L 2016 1126 L 2000 1126 L 2000 1138 L 2001 1138 L 2047 1138 L 2047 1126 L 2031 1126 L 2032 1054 L 2084 1140 L 2103 1140 L 2103 1049 L 2104 1048 L 2119 1048 L 2119 1037 L 2119 1036 L 2072 1036 L 2072 1048 L 2089 1048 L 2089 1114 L 2040 1038 L 2040 1036 L 2000 1036 Z M 2127 1036 L 2127 1048 L 2139 1048 L 2139 1126 L 2139 1126 L 2127 1126 L 2127 1138 L 2128 1138 L 2169 1138 L 2169 1126 L 2157 1126 L 2157 1049 L 2158 1048 L 2169 1048 L 2169 1037 L 2169 1036 L 2127 1036 Z M 2177 1036 L 2177 1048 L 2191 1048 L 2191 1126 L 2191 1126 L 2177 1126 L 2177 1138 L 2178 1138 L 2222 1138 L 2222 1126 L 2208 1126 L 2208 1049 L 2209 1048 L 2223 1048 L 2223 1037 L 2223 1036 L 2177 1036 Z M 2232 1036 L 2232 1048 L 2244 1049 L 2210 1085 L 2243 1125 L 2243 1126 L 2231 1126 L 2231 1138 L 2232 1138 L 2278 1138 L 2278 1126 L 2266 1126 L 2230 1085 L 2257 1056 L 2265 1048 L 2277 1048 L 2277 1037 L 2277 1036 L 2232 1036 Z M 2458 1036 L 2458 1049 L 2472 1049 L 2472 1126 L 2472 1126 L 2458 1126 L 2458 1138 L 2459 1138 L 2499 1138 L 2499 1126 L 2487 1126 L 2488 1052 L 2524 1139 Q 2525 1141 2529 1140 L 2566 1053 L 2567 1053 L 2567 1126 L 2567 1126 L 2554 1126 L 2554 1138 L 2555 1138 L 2597 1138 L 2597 1126 L 2583 1126 L 2583 1050 L 2584 1049 L 2597 1049 L 2597 1037 L 2597 1036 L 2557 1036 L 2528 1105 L 2498 1038 L 2498 1036 L 2458 1036 Z M 2605 1036 L 2605 1048 L 2619 1048 L 2619 1126 L 2619 1126 L 2605 1126 L 2605 1138 L 2658 1138 L 2677 1133 L 2682 1130 Q 2690 1124 2692 1113 L 2692 1105 L 2688 1095 Q 2683 1087 2673 1084 L 2678 1081 Q 2684 1076 2686 1067 Q 2687 1053 2681 1047 L 2670 1039 L 2657 1036 L 2605 1036 Z M 2701 1036 L 2701 1048 L 2714 1048 L 2714 1126 L 2714 1126 L 2701 1126 L 2701 1138 L 2702 1138 L 2745 1138 L 2745 1126 L 2731 1126 L 2731 1090 L 2780 1090 L 2780 1126 L 2767 1126 L 2767 1138 L 2768 1138 L 2811 1138 L 2811 1126 L 2798 1126 L 2798 1049 L 2799 1048 L 2811 1048 L 2811 1037 L 2811 1036 L 2767 1036 L 2767 1048 L 2780 1048 L 2780 1078 L 2731 1078 L 2731 1048 L 2745 1048 L 2745 1037 L 2745 1036 L 2701 1036 Z " /><path fill="rgb(0,0,0)" stroke="rgb(0,0,0)" stroke-width="1" opacity="0" d="M 573.5 173 L 613.5 173 L 614.5 174 L 622.5 174 L 645.5 178 L 669.5 185 Q 724.9 205.6 761 245.5 Q 791 277.5 808 322.5 L 815 345.5 L 820 373.5 L 820 383.5 L 821 384.5 L 821 415.5 L 820 416.5 L 820 426.5 L 815 454.5 L 802 492.5 Q 780.9 538.4 745.5 570 Q 714.9 597.9 672.5 614 L 650.5 621 L 631.5 625 L 617.5 626 L 616.5 627 L 586.5 628 L 585.5 627 L 570.5 627 L 569.5 626 L 562.5 626 L 545.5 623 Q 518.1 616.9 495.5 606 Q 453.5 585.5 424 552.5 Q 395.5 521 379 477.5 L 372 454.5 L 367 426.5 L 367 416.5 L 366 415.5 L 366 385.5 L 367 384.5 L 367 374.5 L 368 373.5 L 368 366.5 L 371 350.5 Q 376.4 325.9 386 305.5 Q 405.9 262.9 438.5 233 Q 465.8 207.3 502.5 191 L 533.5 180 L 551.5 176 L 572.5 174 L 573.5 173 Z " /><path fill="rgb(0,0,0)" stroke="rgb(0,0,0)" stroke-width="1" opacity="0" d="M 275.5 830 L 309.5 830 L 310.5 831 L 327.5 833 L 344.5 838 Q 383.9 852.6 409 881.5 Q 428 902.5 439 931.5 L 447 963.5 L 448 996.5 L 447 997.5 L 447 1006.5 L 445 1017.5 L 435 1048.5 Q 420.3 1080.3 395.5 1102 Q 375.2 1120.2 347.5 1131 L 323.5 1138 L 311.5 1139 L 310.5 1140 L 287.5 1141 L 286.5 1140 L 274.5 1140 L 273.5 1139 L 261.5 1138 Q 241.8 1133.7 225.5 1126 Q 194.9 1111.1 174 1086.5 Q 152.6 1061.9 142 1026.5 L 137 997.5 L 137 972.5 L 142 943.5 Q 147.3 924.8 156 909.5 Q 169.5 885.5 189.5 868 Q 208 851.5 232.5 841 L 253.5 834 L 275.5 830 Z " /><path fill="rgb(0,0,0)" stroke="rgb(0,0,0)" stroke-width="1" opacity="0" d="M 1437 1048 L 1459.5 1048 Q 1460.8 1050.3 1465.5 1049 L 1474 1055.5 Q 1476.7 1059.3 1475 1067.5 L 1469.5 1075 L 1458.5 1078 L 1437 1078 L 1437 1048 Z " /><path fill="rgb(0,0,0)" stroke="rgb(0,0,0)" stroke-width="1" opacity="0" d="M 2636 1048 L 2657.5 1049 L 2667 1055.5 L 2669 1064.5 L 2668 1069.5 L 2663.5 1075 L 2652.5 1079 L 2636 1079 L 2636 1048 Z " /><path fill="rgb(0,0,0)" stroke="rgb(0,0,0)" stroke-width="1" opacity="0" d="M 729.5 1089 L 753.5 1090 L 774.5 1096 Q 796.5 1105.5 811 1122.5 Q 824.2 1137.8 831 1159.5 L 834 1175.5 L 834 1195.5 L 833 1196.5 L 832 1207.5 L 828 1220.5 L 820 1236.5 Q 811.5 1250 799.5 1260 Q 784.8 1272.8 763.5 1279 L 747.5 1282 L 727.5 1282 L 726.5 1281 L 715.5 1280 L 702.5 1276 L 686.5 1268 Q 673 1259.5 663 1247.5 Q 650.6 1232.4 644 1211.5 L 641 1194.5 L 641 1176.5 L 645 1156.5 L 654 1136.5 Q 662.4 1122.4 674.5 1112 Q 685.8 1102.3 700.5 1096 L 716.5 1091 L 728.5 1090 L 729.5 1089 Z " /><path fill="rgb(0,0,0)" stroke="rgb(0,0,0)" stroke-width="1" opacity="0" d="M 2636 1091 L 2659.5 1092 Q 2668 1093.5 2672 1099.5 Q 2675.5 1103.5 2674 1112.5 Q 2672.5 1119 2667.5 1122 L 2659.5 1125 L 2636 1126 L 2636 1091 Z " /><path fill="rgb(255,0,0)" stroke="rgb(255,0,0)" stroke-width="1" opacity="0.48627450980392156" d="M 2519.5 466 L 2526 466.5 L 2519.5 467 L 2519.5 466 Z " /><path fill="rgb(255,0,0)" stroke="rgb(255,0,0)" stroke-width="1" opacity="0.48627450980392156" d="M 2561.5 466 L 2569 466.5 L 2561.5 467 L 2561.5 466 Z " /><path fill="rgb(255,0,0)" stroke="rgb(255,0,0)" stroke-width="1" opacity="0.48627450980392156" d="M 2509.5 467 L 2514 467.5 L 2509.5 468 L 2509.5 467 Z " /><path fill="rgb(255,0,0)" stroke="rgb(255,0,0)" stroke-width="1" opacity="0.48627450980392156" d="M 2574.5 467 L 2579 467.5 L 2574.5 468 L 2574.5 467 Z " /><path fill="rgb(255,0,0)" stroke="rgb(255,0,0)" stroke-width="1" opacity="0.48627450980392156" d="M 2501.5 468 L 2506 468.5 L 2501.5 469 L 2501.5 468 Z " /><path fill="rgb(255,0,0)" stroke="rgb(255,0,0)" stroke-width="1" opacity="0.48627450980392156" d="M 2582.5 468 L 2587 468.5 L 2582.5 469 L 2582.5 468 Z " /><path fill="rgb(255,0,0)" stroke="rgb(255,0,0)" stroke-width="1" opacity="0.48627450980392156" d="M 2495.5 469 L 2499 469.5 L 2495.5 470 L 2495.5 469 Z " /><path fill="rgb(255,0,0)" stroke="rgb(255,0,0)" stroke-width="1" opacity="0.48627450980392156" d="M 2589.5 469 L 2593 469.5 L 2589.5 470 L 2589.5 469 Z " /><path fill="rgb(255,0,0)" stroke="rgb(255,0,0)" stroke-width="1" opacity="0.48627450980392156" d="M 2490.5 470 L 2493 470.5 L 2490.5 471 L 2490.5 470 Z " /><path fill="rgb(255,0,0)" stroke="rgb(255,0,0)" stroke-width="1" opacity="0.48627450980392156" d="M 2595.5 470 L 2598 470.5 L 2595.5 471 L 2595.5 470 Z " /><path fill="rgb(255,0,0)" stroke="rgb(255,0,0)" stroke-width="1" opacity="0.48627450980392156" d="M 2485.5 471 L 2488 471.5 L 2485.5 472 L 2485.5 471 Z " /><path fill="rgb(255,0,0)" stroke="rgb(255,0,0)" stroke-width="1" opacity="0.48627450980392156" d="M 2600.5 471 L 2603 471.5 L 2600.5 472 L 2600.5 471 Z " /><path fill="rgb(255,0,0)" stroke="rgb(255,0,0)" stroke-width="1" opacity="0.48627450980392156" d="M 2481.5 472 L 2484 472.5 L 2481.5 473 L 2481.5 472 Z " /><path fill="rgb(255,0,0)" stroke="rgb(255,0,0)" stroke-width="1" opacity="0.48627450980392156" d="M 2604.5 472 L 2607 472.5 L 2604.5 473 L 2604.5 472 Z " /><path fill="rgb(255,0,0)" stroke="rgb(255,0,0)" stroke-width="1" opacity="0.48627450980392156" d="M 2608.5 473 L 2611 473.5 L 2608.5 474 L 2608.5 473 Z " /><path fill="rgb(255,0,0)" stroke="rgb(255,0,0)" stroke-width="1" opacity="0.48627450980392156" d="M 2612.5 474 L 2615 474.5 L 2612.5 475 L 2612.5 474 Z " /><path fill="rgb(255,0,0)" stroke="rgb(255,0,0)" stroke-width="1" opacity="0.48627450980392156" d="M 2469.5 475 L 2472 475.5 L 2469.5 476 L 2469.5 475 Z " /><path fill="rgb(255,0,0)" stroke="rgb(255,0,0)" stroke-width="1" opacity="0.48627450980392156" d="M 1430.5 476 L 1430 477.5 L 1429.5 479 L 1429 477.5 L 1430.5 476 Z " /><path fill="rgb(255,0,0)" stroke="rgb(255,0,0)" stroke-width="1" opacity="0.48627450980392156" d="M 1716.5 476 L 1717 597.5 L 1716 597.5 L 1716.5 476 Z " /><path fill="rgb(255,0,0)" stroke="rgb(255,0,0)" stroke-width="1" opacity="0.48627450980392156" d="M 1765.5 476 L 1766 690.5 L 1765 690.5 L 1765.5 476 Z " /><path fill="rgb(255,0,0)" stroke="rgb(255,0,0)" stroke-width="1" opacity="0.48627450980392156" d="M 2796.5 476 L 2797 653.5 L 2796 653.5 L 2796.5 476 Z " /><path fill="rgb(255,0,0)" stroke="rgb(255,0,0)" stroke-width="1" opacity="0.48627450980392156" d="M 1289.5 477 L 1292 483.5 L 1291 483.5 L 1289.5 477 Z " /><path fill="rgb(255,0,0)" stroke="rgb(255,0,0)" stroke-width="1" opacity="0.48627450980392156" d="M 2628.5 479 L 2632 480.5 L 2630.5 481 L 2628.5 479 Z " /><path fill="rgb(255,0,0)" stroke="rgb(255,0,0)" stroke-width="1" opacity="0.48627450980392156" d="M 2451.5 481 L 2453 481.5 L 2449.5 483 L 2449.5 482 L 2451.5 481 Z " /><path fill="rgb(255,0,0)" stroke="rgb(255,0,0)" stroke-width="1" opacity="0.48627450980392156" d="M 2633.5 481 L 2637 482.5 L 2635.5 483 L 2633.5 481 Z " /><path fill="rgb(255,0,0)" stroke="rgb(255,0,0)" stroke-width="1" opacity="0.48627450980392156" d="M 2638.5 483 L 2653 490.5 L 2651.5 490 L 2638.5 484 L 2638.5 483 Z " /><path fill="rgb(255,0,0)" stroke="rgb(255,0,0)" stroke-width="1" opacity="0.48627450980392156" d="M 2441.5 485 L 2443 485.5 L 2439.5 487 L 2439.5 486 L 2441.5 485 Z " /><path fill="rgb(255,0,0)" stroke="rgb(255,0,0)" stroke-width="1" opacity="0.48627450980392156" d="M 1426.5 486 L 1427 487.5 L 1425.5 490 L 1425 488.5 L 1426.5 486 Z " /><path fill="rgb(255,0,0)" stroke="rgb(255,0,0)" stroke-width="1" opacity="0.48627450980392156" d="M 2430.5 490 L 2432 490.5 L 2427.5 493 L 2428.5 491 L 2430.5 490 Z " /><path fill="rgb(255,0,0)" stroke="rgb(255,0,0)" stroke-width="1" opacity="0.48627450980392156" d="M 1294.5 491 L 1297 497.5 L 1296 497.5 L 1294.5 491 Z " /><path fill="rgb(255,0,0)" stroke="rgb(255,0,0)" stroke-width="1" opacity="0.48627450980392156" d="M 2656.5 492 L 2675 505.5 L 2671.5 503 L 2657.5 494 L 2656.5 492 Z " /><path fill="rgb(255,0,0)" stroke="rgb(255,0,0)" stroke-width="1" opacity="0.48627450980392156" d="M 1423.5 494 L 1424 495.5 L 1421.5 501 L 1421 499.5 L 1423.5 494 Z " /><path fill="rgb(255,0,0)" stroke="rgb(255,0,0)" stroke-width="1" opacity="0.48627450980392156" d="M 2421.5 495 L 2420.5 497 L 2416.5 499 L 2417.5 497 L 2421.5 495 Z " /><path fill="rgb(255,0,0)" stroke="rgb(255,0,0)" stroke-width="1" opacity="0.48627450980392156" d="M 2414.5 499 L 2413.5 501 L 2411.5 502 L 2412.5 500 L 2414.5 499 Z " /><path fill="rgb(255,0,0)" stroke="rgb(255,0,0)" stroke-width="1" opacity="0.48627450980392156" d="M 2409.5 502 L 2408.5 504 L 2409.5 502 Z " /><path fill="rgb(255,0,0)" stroke="rgb(255,0,0)" stroke-width="1" opacity="0.48627450980392156" d="M 2406.5 504 L 2405.5 506 L 2402.5 508 L 2404.5 505 L 2406.5 504 Z " /><path fill="rgb(255,0,0)" stroke="rgb(255,0,0)" stroke-width="1" opacity="0.48627450980392156" d="M 1299.5 505 L 1302 511.5 L 1301 511.5 L 1299.5 505 Z " /><path fill="rgb(255,0,0)" stroke="rgb(255,0,0)" stroke-width="1" opacity="0.48627450980392156" d="M 1419.5 505 L 1420 506.5 L 1417.5 512 L 1417 510.5 L 1419.5 505 Z " /><path fill="rgb(255,0,0)" stroke="rgb(255,0,0)" stroke-width="1" opacity="0.48627450980392156" d="M 2676.5 506 L 2680.5 511 L 2676.5 506 Z " /><path fill="rgb(255,0,0)" stroke="rgb(255,0,0)" stroke-width="1" opacity="0.48627450980392156" d="M 2400.5 508 L 2399.5 510 L 2400.5 508 Z " /><path fill="rgb(255,0,0)" stroke="rgb(255,0,0)" stroke-width="1" opacity="0.48627450980392156" d="M 2397.5 510 L 2395.5 513 L 2397.5 510 Z " /><path fill="rgb(255,0,0)" stroke="rgb(255,0,0)" stroke-width="1" opacity="0.48627450980392156" d="M 2393.5 513 L 2391.5 516 L 2393.5 513 Z " /><path fill="rgb(255,0,0)" stroke="rgb(255,0,0)" stroke-width="1" opacity="0.48627450980392156" d="M 1415.5 516 L 1416 517.5 L 1414.5 520 L 1414 518.5 L 1415.5 516 Z " /><path fill="rgb(255,0,0)" stroke="rgb(255,0,0)" stroke-width="1" opacity="0.48627450980392156" d="M 2389.5 516 L 2386.5 520 L 2380.5 525 L 2385.5 519 L 2389.5 516 Z " /><path fill="rgb(255,0,0)" stroke="rgb(255,0,0)" stroke-width="1" opacity="0.48627450980392156" d="M 1305.5 522 L 1307 525.5 L 1306 525.5 L 1305.5 522 Z " /><path fill="rgb(255,0,0)" stroke="rgb(255,0,0)" stroke-width="1" opacity="0.48627450980392156" d="M 2378.5 525 L 2366.5 538 L 2364.5 539 L 2365.5 537 L 2378.5 525 Z " /><path fill="rgb(255,0,0)" stroke="rgb(255,0,0)" stroke-width="1" opacity="0.48627450980392156" d="M 1411.5 527 L 1412 528.5 L 1410.5 531 L 1410 529.5 L 1411.5 527 Z " /><path fill="rgb(255,0,0)" stroke="rgb(255,0,0)" stroke-width="1" opacity="0.48627450980392156" d="M 1310.5 536 L 1312 539.5 L 1311 539.5 L 1310.5 536 Z " /><path fill="rgb(255,0,0)" stroke="rgb(255,0,0)" stroke-width="1" opacity="0.48627450980392156" d="M 1407.5 538 L 1408 539.5 L 1406.5 542 L 1406 540.5 L 1407.5 538 Z " /><path fill="rgb(255,0,0)" stroke="rgb(255,0,0)" stroke-width="1" opacity="0.48627450980392156" d="M 2363.5 540 L 2352.5 552 L 2363.5 540 Z " /><path fill="rgb(255,0,0)" stroke="rgb(255,0,0)" stroke-width="1" opacity="0.48627450980392156" d="M 1403.5 549 L 1404 550.5 L 1402.5 553 L 1402 551.5 L 1403.5 549 Z " /><path fill="rgb(255,0,0)" stroke="rgb(255,0,0)" stroke-width="1" opacity="0.48627450980392156" d="M 1315.5 550 L 1318 556.5 L 1317 556.5 L 1315.5 550 Z " /><path fill="rgb(255,0,0)" stroke="rgb(255,0,0)" stroke-width="1" opacity="0.48627450980392156" d="M 2351.5 553 L 2347.5 558 L 2351.5 553 Z " /><path fill="rgb(255,0,0)" stroke="rgb(255,0,0)" stroke-width="1" opacity="0.48627450980392156" d="M 2346.5 559 L 2344 562.5 L 2338.5 570 L 2340 567.5 L 2346.5 559 Z " /><path fill="rgb(255,0,0)" stroke="rgb(255,0,0)" stroke-width="1" opacity="0.48627450980392156" d="M 1399.5 560 L 1400 561.5 L 1398.5 564 L 1398 562.5 L 1399.5 560 Z " /><path fill="rgb(255,0,0)" stroke="rgb(255,0,0)" stroke-width="1" opacity="0.48627450980392156" d="M 1320.5 564 L 1323 570.5 L 1322 570.5 L 1320.5 564 Z " /><path fill="rgb(255,0,0)" stroke="rgb(255,0,0)" stroke-width="1" opacity="0.48627450980392156" d="M 1396.5 568 L 1397 569.5 L 1394.5 575 L 1394 573.5 L 1396.5 568 Z " /><path fill="rgb(255,0,0)" stroke="rgb(255,0,0)" stroke-width="1" opacity="0.48627450980392156" d="M 2337.5 571 L 2336 573.5 L 2332.5 579 L 2333 577.5 L 2337.5 571 Z " /><path fill="rgb(255,0,0)" stroke="rgb(255,0,0)" stroke-width="1" opacity="0.48627450980392156" d="M 1325.5 578 L 1328 584.5 L 1327 584.5 L 1325.5 578 Z " /><path fill="rgb(255,0,0)" stroke="rgb(255,0,0)" stroke-width="1" opacity="0.48627450980392156" d="M 1392.5 579 L 1393 580.5 L 1390.5 586 L 1390 584.5 L 1392.5 579 Z " /><path fill="rgb(255,0,0)" stroke="rgb(255,0,0)" stroke-width="1" opacity="0.48627450980392156" d="M 2331.5 580 L 2330.5 582 L 2331.5 580 Z " /><path fill="rgb(255,0,0)" stroke="rgb(255,0,0)" stroke-width="1" opacity="0.48627450980392156" d="M 1506.5 581 L 1507 862.5 L 1506 862.5 L 1506 584.5 L 1505 582.5 L 1506.5 581 Z " /><path fill="rgb(255,0,0)" stroke="rgb(255,0,0)" stroke-width="1" opacity="0.48627450980392156" d="M 2329.5 583 L 2329 584.5 L 2327.5 587 L 2328 585.5 L 2329.5 583 Z " /><path fill="rgb(255,0,0)" stroke="rgb(255,0,0)" stroke-width="1" opacity="0.48627450980392156" d="M 1149.5 584 L 1151 587.5 L 1150 588.5 L 1149.5 863 L 1149.5 584 Z " /><path fill="rgb(255,0,0)" stroke="rgb(255,0,0)" stroke-width="1" opacity="0.48627450980392156" d="M 2575.5 587 L 2597 587.5 L 2575.5 588 L 2575.5 587 Z " /><path fill="rgb(255,0,0)" stroke="rgb(255,0,0)" stroke-width="1" opacity="0.48627450980392156" d="M 1503.5 588 L 1504 589.5 L 1501.5 595 L 1501 593.5 L 1503.5 588 Z " /><path fill="rgb(255,0,0)" stroke="rgb(255,0,0)" stroke-width="1" opacity="0.48627450980392156" d="M 2326.5 588 L 2326 589.5 L 2322.5 596 L 2323 594.5 L 2326.5 588 Z " /><path fill="rgb(255,0,0)" stroke="rgb(255,0,0)" stroke-width="1" opacity="0.48627450980392156" d="M 2567.5 588 L 2571 588.5 L 2567.5 589 L 2567.5 588 Z " /><path fill="rgb(255,0,0)" stroke="rgb(255,0,0)" stroke-width="1" opacity="0.48627450980392156" d="M 2601.5 588 L 2605 588.5 L 2601.5 589 L 2601.5 588 Z " /><path fill="rgb(255,0,0)" stroke="rgb(255,0,0)" stroke-width="1" opacity="0.48627450980392156" d="M 1151.5 589 L 1154 595.5 L 1153 595.5 L 1151.5 589 Z " /><path fill="rgb(255,0,0)" stroke="rgb(255,0,0)" stroke-width="1" opacity="0.48627450980392156" d="M 2562.5 589 L 2565 589.5 L 2562.5 590 L 2562.5 589 Z " /><path fill="rgb(255,0,0)" stroke="rgb(255,0,0)" stroke-width="1" opacity="0.48627450980392156" d="M 2607.5 589 L 2610 589.5 L 2607.5 590 L 2607.5 589 Z " /><path fill="rgb(255,0,0)" stroke="rgb(255,0,0)" stroke-width="1" opacity="0.48627450980392156" d="M 1388.5 590 L 1389 591.5 L 1387.5 594 L 1387 592.5 L 1388.5 590 Z " /><path fill="rgb(255,0,0)" stroke="rgb(255,0,0)" stroke-width="1" opacity="0.48627450980392156" d="M 2558.5 590 L 2561 590.5 L 2558.5 591 L 2558.5 590 Z " /><path fill="rgb(255,0,0)" stroke="rgb(255,0,0)" stroke-width="1" opacity="0.48627450980392156" d="M 2611.5 590 L 2614 590.5 L 2611.5 591 L 2611.5 590 Z " /><path fill="rgb(255,0,0)" stroke="rgb(255,0,0)" stroke-width="1" opacity="0.48627450980392156" d="M 2552.5 592 L 2554 592.5 L 2550.5 594 L 2550.5 593 L 2552.5 592 Z " /><path fill="rgb(255,0,0)" stroke="rgb(255,0,0)" stroke-width="1" opacity="0.48627450980392156" d="M 2547.5 594 L 2549 594.5 L 2544.5 597 L 2545.5 595 L 2547.5 594 Z " /><path fill="rgb(255,0,0)" stroke="rgb(255,0,0)" stroke-width="1" opacity="0.48627450980392156" d="M 1331.5 595 L 1333 598.5 L 1332 598.5 L 1331.5 595 Z " /><path fill="rgb(255,0,0)" stroke="rgb(255,0,0)" stroke-width="1" opacity="0.48627450980392156" d="M 2626.5 595 L 2635 599.5 L 2633.5 599 L 2626.5 596 L 2626.5 595 Z " /><path fill="rgb(255,0,0)" stroke="rgb(255,0,0)" stroke-width="1" opacity="0.48627450980392156" d="M 1855.5 598 L 1856 690.5 L 1855 690.5 L 1855.5 598 Z " /><path fill="rgb(255,0,0)" stroke="rgb(255,0,0)" stroke-width="1" opacity="0.48627450980392156" d="M 1909.5 598 L 1910 862.5 L 1909 862.5 L 1909.5 598 Z " /><path fill="rgb(255,0,0)" stroke="rgb(255,0,0)" stroke-width="1" opacity="0.48627450980392156" d="M 2540.5 598 L 2539.5 600 L 2540.5 598 Z " /><path fill="rgb(255,0,0)" stroke="rgb(255,0,0)" stroke-width="1" opacity="0.48627450980392156" d="M 2537.5 600 L 2536.5 602 L 2537.5 600 Z " /><path fill="rgb(255,0,0)" stroke="rgb(255,0,0)" stroke-width="1" opacity="0.48627450980392156" d="M 2636.5 600 L 2640 602.5 L 2638.5 602 L 2636.5 600 Z " /><path fill="rgb(255,0,0)" stroke="rgb(255,0,0)" stroke-width="1" opacity="0.48627450980392156" d="M 1384.5 601 L 1385 602.5 L 1383.5 605 L 1383 603.5 L 1384.5 601 Z " /><path fill="rgb(255,0,0)" stroke="rgb(255,0,0)" stroke-width="1" opacity="0.48627450980392156" d="M 2534.5 602 L 2523 614.5 L 2520.5 618 L 2522 615.5 L 2534.5 602 Z " /><path fill="rgb(255,0,0)" stroke="rgb(255,0,0)" stroke-width="1" opacity="0.48627450980392156" d="M 2641.5 603 L 2661 620.5 L 2649.5 610 Q 2643.4 607.3 2641.5 603 Z " /><path fill="rgb(255,0,0)" stroke="rgb(255,0,0)" stroke-width="1" opacity="0.48627450980392156" d="M 1497.5 605 L 1498 606.5 L 1495.5 612 L 1495 610.5 L 1497.5 605 Z " /><path fill="rgb(255,0,0)" stroke="rgb(255,0,0)" stroke-width="1" opacity="0.48627450980392156" d="M 1157.5 606 L 1160 612.5 L 1159 612.5 L 1157.5 606 Z " /><path fill="rgb(255,0,0)" stroke="rgb(255,0,0)" stroke-width="1" opacity="0.48627450980392156" d="M 2316.5 607 L 2317 608.5 L 2314.5 613 L 2314 611.5 L 2316.5 607 Z " /><path fill="rgb(255,0,0)" stroke="rgb(255,0,0)" stroke-width="1" opacity="0.48627450980392156" d="M 1336.5 609 L 1338 612.5 L 1337 612.5 L 1336.5 609 Z " /><path fill="rgb(255,0,0)" stroke="rgb(255,0,0)" stroke-width="1" opacity="0.48627450980392156" d="M 1380.5 612 L 1381 613.5 L 1379.5 616 L 1379 614.5 L 1380.5 612 Z " /><path fill="rgb(255,0,0)" stroke="rgb(255,0,0)" stroke-width="1" opacity="0.48627450980392156" d="M 2313.5 614 L 2314 615.5 L 2312.5 618 L 2312 616.5 L 2313.5 614 Z " /><path fill="rgb(255,0,0)" stroke="rgb(255,0,0)" stroke-width="1" opacity="0.48627450980392156" d="M 2519.5 619 L 2518.5 621 L 2519.5 619 Z " /><path fill="rgb(255,0,0)" stroke="rgb(255,0,0)" stroke-width="1" opacity="0.48627450980392156" d="M 1491.5 622 L 1492 623.5 L 1490.5 626 L 1490 624.5 L 1491.5 622 Z " /><path fill="rgb(255,0,0)" stroke="rgb(255,0,0)" stroke-width="1" opacity="0.48627450980392156" d="M 2661.5 622 L 2664.5 626 L 2661.5 622 Z " /><path fill="rgb(255,0,0)" stroke="rgb(255,0,0)" stroke-width="1" opacity="0.48627450980392156" d="M 1163.5 623 L 1165 626.5 L 1164 626.5 L 1163.5 623 Z " /><path fill="rgb(255,0,0)" stroke="rgb(255,0,0)" stroke-width="1" opacity="0.48627450980392156" d="M 1341.5 623 L 1343 626.5 L 1342 626.5 L 1341.5 623 Z " /><path fill="rgb(255,0,0)" stroke="rgb(255,0,0)" stroke-width="1" opacity="0.48627450980392156" d="M 1376.5 623 L 1377 624.5 L 1375.5 627 L 1375 625.5 L 1376.5 623 Z " /><path fill="rgb(255,0,0)" stroke="rgb(255,0,0)" stroke-width="1" opacity="0.48627450980392156" d="M 2309.5 624 L 2310 625.5 L 2307.5 631 L 2307 629.5 L 2309.5 624 Z " /><path fill="rgb(255,0,0)" stroke="rgb(255,0,0)" stroke-width="1" opacity="0.48627450980392156" d="M 2516.5 624 L 2516 625.5 L 2514.5 629 L 2514 627.5 L 2516.5 624 Z " /><path fill="rgb(255,0,0)" stroke="rgb(255,0,0)" stroke-width="1" opacity="0.48627450980392156" d="M 2665.5 627 L 2667.5 630 L 2665.5 627 Z " /><path fill="rgb(255,0,0)" stroke="rgb(255,0,0)" stroke-width="1" opacity="0.48627450980392156" d="M 2668.5 631 L 2669.5 633 L 2668.5 631 Z " /><path fill="rgb(255,0,0)" stroke="rgb(255,0,0)" stroke-width="1" opacity="0.48627450980392156" d="M 2512.5 632 L 2513 633.5 L 2511.5 636 L 2511 634.5 L 2512.5 632 Z " /><path fill="rgb(255,0,0)" stroke="rgb(255,0,0)" stroke-width="1" opacity="0.48627450980392156" d="M 1372.5 634 L 1373 635.5 L 1371.5 638 L 1371 636.5 L 1372.5 634 Z " /><path fill="rgb(255,0,0)" stroke="rgb(255,0,0)" stroke-width="1" opacity="0.48627450980392156" d="M 2670.5 634 L 2671.5 636 L 2670.5 634 Z " /><path fill="rgb(255,0,0)" stroke="rgb(255,0,0)" stroke-width="1" opacity="0.48627450980392156" d="M 2305.5 635 L 2306 637.5 L 2304.5 641 L 2304 638.5 L 2305.5 635 Z " /><path fill="rgb(255,0,0)" stroke="rgb(255,0,0)" stroke-width="1" opacity="0.48627450980392156" d="M 1486.5 636 L 1487 637.5 L 1484.5 643 L 1484 641.5 L 1486.5 636 Z " /><path fill="rgb(255,0,0)" stroke="rgb(255,0,0)" stroke-width="1" opacity="0.48627450980392156" d="M 1168.5 637 L 1171 643.5 L 1170 643.5 L 1168.5 637 Z " /><path fill="rgb(255,0,0)" stroke="rgb(255,0,0)" stroke-width="1" opacity="0.48627450980392156" d="M 1346.5 637 L 1349 643.5 L 1348 643.5 L 1346.5 637 Z " /><path fill="rgb(255,0,0)" stroke="rgb(255,0,0)" stroke-width="1" opacity="0.48627450980392156" d="M 2672.5 637 L 2676 642.5 L 2674 641.5 L 2672.5 637 Z " /><path fill="rgb(255,0,0)" stroke="rgb(255,0,0)" stroke-width="1" opacity="0.48627450980392156" d="M 1369.5 642 L 1370 643.5 L 1367.5 649 L 1367 647.5 L 1369.5 642 Z " /><path fill="rgb(255,0,0)" stroke="rgb(255,0,0)" stroke-width="1" opacity="0.48627450980392156" d="M 2508.5 643 L 2509 645.5 L 2508 645.5 L 2508.5 643 Z " /><path fill="rgb(255,0,0)" stroke="rgb(255,0,0)" stroke-width="1" opacity="0.48627450980392156" d="M 2302.5 645 L 2303 647.5 L 2302 647.5 L 2302.5 645 Z " /><path fill="rgb(255,0,0)" stroke="rgb(255,0,0)" stroke-width="1" opacity="0.48627450980392156" d="M 2301.5 649 L 2302 651.5 L 2301 651.5 L 2301.5 649 Z " /><path fill="rgb(255,0,0)" stroke="rgb(255,0,0)" stroke-width="1" opacity="0.48627450980392156" d="M 2506.5 650 L 2507 652.5 L 2506 652.5 L 2506.5 650 Z " /><path fill="rgb(255,0,0)" stroke="rgb(255,0,0)" stroke-width="1" opacity="0.48627450980392156" d="M 1351.5 651 L 1354 657.5 L 1353 657.5 L 1351.5 651 Z " /><path fill="rgb(255,0,0)" stroke="rgb(255,0,0)" stroke-width="1" opacity="0.48627450980392156" d="M 2680.5 652 L 2681.5 654 L 2680.5 652 Z " /><path fill="rgb(255,0,0)" stroke="rgb(255,0,0)" stroke-width="1" opacity="0.48627450980392156" d="M 1365.5 653 L 1366 654.5 L 1363.5 660 L 1363 658.5 L 1365.5 653 Z " /><path fill="rgb(255,0,0)" stroke="rgb(255,0,0)" stroke-width="1" opacity="0.48627450980392156" d="M 1480.5 653 L 1481 654.5 L 1478.5 660 L 1478 658.5 L 1480.5 653 Z " /><path fill="rgb(255,0,0)" stroke="rgb(255,0,0)" stroke-width="1" opacity="0.48627450980392156" d="M 2300.5 653 L 2301 655.5 L 2300 655.5 L 2300.5 653 Z " /><path fill="rgb(255,0,0)" stroke="rgb(255,0,0)" stroke-width="1" opacity="0.48627450980392156" d="M 1174.5 654 L 1177 660.5 L 1176 660.5 L 1174.5 654 Z " /><path fill="rgb(255,0,0)" stroke="rgb(255,0,0)" stroke-width="1" opacity="0.48627450980392156" d="M 2505.5 655 L 2506 657.5 L 2505 657.5 L 2505.5 655 Z " /><path fill="rgb(255,0,0)" stroke="rgb(255,0,0)" stroke-width="1" opacity="0.48627450980392156" d="M 2299.5 657 L 2300 659.5 L 2299 659.5 L 2299.5 657 Z " /><path fill="rgb(255,0,0)" stroke="rgb(255,0,0)" stroke-width="1" opacity="0.48627450980392156" d="M 2504.5 660 L 2505 662.5 L 2504 662.5 L 2504.5 660 Z " /><path fill="rgb(255,0,0)" stroke="rgb(255,0,0)" stroke-width="1" opacity="0.48627450980392156" d="M 2298.5 662 L 2299 664.5 L 2298 664.5 L 2298.5 662 Z " /><path fill="rgb(255,0,0)" stroke="rgb(255,0,0)" stroke-width="1" opacity="0.48627450980392156" d="M 1361.5 664 L 1362 665.5 L 1360.5 668 L 1360 666.5 L 1361.5 664 Z " /><path fill="rgb(255,0,0)" stroke="rgb(255,0,0)" stroke-width="1" opacity="0.48627450980392156" d="M 2503.5 665 L 2504 668.5 L 2503 668.5 L 2503.5 665 Z " /><path fill="rgb(255,0,0)" stroke="rgb(255,0,0)" stroke-width="1" opacity="0.48627450980392156" d="M 2297.5 667 L 2298 669.5 L 2297 669.5 L 2297.5 667 Z " /><path fill="rgb(255,0,0)" stroke="rgb(255,0,0)" stroke-width="1" opacity="0.48627450980392156" d="M 1357.5 668 L 1358.5 670 L 1360 669.5 L 1358.5 672 L 1357.5 668 Z " /><path fill="rgb(255,0,0)" stroke="rgb(255,0,0)" stroke-width="1" opacity="0.48627450980392156" d="M 1474.5 670 L 1475 671.5 L 1473.5 674 L 1473 672.5 L 1474.5 670 Z " /><path fill="rgb(255,0,0)" stroke="rgb(255,0,0)" stroke-width="1" opacity="0.48627450980392156" d="M 1180.5 671 L 1183 677.5 L 1182 677.5 L 1180.5 671 Z " /><path fill="rgb(255,0,0)" stroke="rgb(255,0,0)" stroke-width="1" opacity="0.48627450980392156" d="M 2502.5 671 L 2503 675.5 L 2502 675.5 L 2502.5 671 Z " /><path fill="rgb(255,0,0)" stroke="rgb(255,0,0)" stroke-width="1" opacity="0.48627450980392156" d="M 2296.5 672 L 2297 675.5 L 2296 675.5 L 2296.5 672 Z " /><path fill="rgb(255,0,0)" stroke="rgb(255,0,0)" stroke-width="1" opacity="0.48627450980392156" d="M 2295.5 678 L 2296 681.5 L 2295 681.5 L 2295.5 678 Z " /><path fill="rgb(255,0,0)" stroke="rgb(255,0,0)" stroke-width="1" opacity="0.48627450980392156" d="M 2501.5 679 L 2502 683.5 L 2501 683.5 L 2501.5 679 Z " /><path fill="rgb(255,0,0)" stroke="rgb(255,0,0)" stroke-width="1" opacity="0.48627450980392156" d="M 1469.5 684 L 1470 685.5 L 1467.5 691 L 1467 689.5 L 1469.5 684 Z " /><path fill="rgb(255,0,0)" stroke="rgb(255,0,0)" stroke-width="1" opacity="0.48627450980392156" d="M 2294.5 685 L 2295 689.5 L 2294 689.5 L 2294.5 685 Z " /><path fill="rgb(255,0,0)" stroke="rgb(255,0,0)" stroke-width="1" opacity="0.48627450980392156" d="M 1186.5 688 L 1188 691.5 L 1187 691.5 L 1186.5 688 Z " /><path fill="rgb(255,0,0)" stroke="rgb(255,0,0)" stroke-width="1" opacity="0.48627450980392156" d="M 2500.5 688 L 2501 694.5 L 2500 694.5 L 2500.5 688 Z " /><path fill="rgb(255,0,0)" stroke="rgb(255,0,0)" stroke-width="1" opacity="0.48627450980392156" d="M 2293.5 694 L 2294 699.5 L 2293 699.5 L 2293.5 694 Z " /><path fill="rgb(255,0,0)" stroke="rgb(255,0,0)" stroke-width="1" opacity="0.48627450980392156" d="M 1463.5 701 L 1464 702.5 L 1461.5 708 L 1461 706.5 L 1463.5 701 Z " /><path fill="rgb(255,0,0)" stroke="rgb(255,0,0)" stroke-width="1" opacity="0.48627450980392156" d="M 1191.5 702 L 1194 708.5 L 1193 708.5 L 1191.5 702 Z " /><path fill="rgb(255,0,0)" stroke="rgb(255,0,0)" stroke-width="1" opacity="0.48627450980392156" d="M 2499.5 702 L 2500 712.5 L 2499 712.5 L 2499.5 702 Z " /><path fill="rgb(255,0,0)" stroke="rgb(255,0,0)" stroke-width="1" opacity="0.48627450980392156" d="M 2292.5 706 L 2293 715.5 L 2292 715.5 L 2292.5 706 Z " /><path fill="rgb(255,0,0)" stroke="rgb(255,0,0)" stroke-width="1" opacity="0.48627450980392156" d="M 2600.5 713 L 2601 810 L 2649.5 810 L 2650 813.5 L 2649 813.5 L 2648.5 811 L 2600 811 L 2600.5 713 Z " /><path fill="rgb(255,0,0)" stroke="rgb(255,0,0)" stroke-width="1" opacity="0.48627450980392156" d="M 1457.5 718 L 1458 719.5 L 1456.5 722 L 1456 720.5 L 1457.5 718 Z " /><path fill="rgb(255,0,0)" stroke="rgb(255,0,0)" stroke-width="1" opacity="0.48627450980392156" d="M 1197.5 719 L 1200 725.5 L 1199 725.5 L 1197.5 719 Z " /><path fill="rgb(255,0,0)" stroke="rgb(255,0,0)" stroke-width="1" opacity="0.48627450980392156" d="M 1451.5 735 L 1452 736.5 L 1450.5 739 L 1450 737.5 L 1451.5 735 Z " /><path fill="rgb(255,0,0)" stroke="rgb(255,0,0)" stroke-width="1" opacity="0.48627450980392156" d="M 1203.5 736 L 1206 742.5 L 1205 742.5 L 1203.5 736 Z " /><path fill="rgb(255,0,0)" stroke="rgb(255,0,0)" stroke-width="1" opacity="0.48627450980392156" d="M 2813.5 742 L 2814 756.5 L 2813 756.5 L 2813.5 742 Z " /><path fill="rgb(255,0,0)" stroke="rgb(255,0,0)" stroke-width="1" opacity="0.48627450980392156" d="M 2292.5 743 L 2293 752.5 L 2292 752.5 L 2292.5 743 Z " /><path fill="rgb(255,0,0)" stroke="rgb(255,0,0)" stroke-width="1" opacity="0.48627450980392156" d="M 1446.5 749 L 1447 750.5 L 1444.5 756 L 1444 754.5 L 1446.5 749 Z " /><path fill="rgb(255,0,0)" stroke="rgb(255,0,0)" stroke-width="1" opacity="0.48627450980392156" d="M 1209.5 753 L 1211 756.5 L 1210 756.5 L 1209.5 753 Z " /><path fill="rgb(255,0,0)" stroke="rgb(255,0,0)" stroke-width="1" opacity="0.48627450980392156" d="M 2499.5 755 L 2500 765.5 L 2499 765.5 L 2499.5 755 Z " /><path fill="rgb(255,0,0)" stroke="rgb(255,0,0)" stroke-width="1" opacity="0.48627450980392156" d="M 2293.5 759 L 2294 764.5 L 2293 764.5 L 2293.5 759 Z " /><path fill="rgb(255,0,0)" stroke="rgb(255,0,0)" stroke-width="1" opacity="0.48627450980392156" d="M 1440.5 766 L 1441 767.5 L 1438.5 773 L 1438 771.5 L 1440.5 766 Z " /><path fill="rgb(255,0,0)" stroke="rgb(255,0,0)" stroke-width="1" opacity="0.48627450980392156" d="M 1214.5 767 L 1217 773.5 L 1216 773.5 L 1214.5 767 Z " /><path fill="rgb(255,0,0)" stroke="rgb(255,0,0)" stroke-width="1" opacity="0.48627450980392156" d="M 2812.5 767 L 2813 774.5 L 2812 774.5 L 2812.5 767 Z " /><path fill="rgb(255,0,0)" stroke="rgb(255,0,0)" stroke-width="1" opacity="0.48627450980392156" d="M 2294.5 768 L 2295 772.5 L 2294 772.5 L 2294.5 768 Z " /><path fill="rgb(255,0,0)" stroke="rgb(255,0,0)" stroke-width="1" opacity="0.48627450980392156" d="M 2500.5 773 L 2501 778.5 L 2500 778.5 L 2500.5 773 Z " /><path fill="rgb(255,0,0)" stroke="rgb(255,0,0)" stroke-width="1" opacity="0.48627450980392156" d="M 2295.5 776 L 2296 779.5 L 2295 779.5 L 2295.5 776 Z " /><path fill="rgb(255,0,0)" stroke="rgb(255,0,0)" stroke-width="1" opacity="0.48627450980392156" d="M 2811.5 781 L 2812 787.5 L 2811 787.5 L 2811.5 781 Z " /><path fill="rgb(255,0,0)" stroke="rgb(255,0,0)" stroke-width="1" opacity="0.48627450980392156" d="M 2296.5 782 L 2297 785.5 L 2296 785.5 L 2296.5 782 Z " /><path fill="rgb(255,0,0)" stroke="rgb(255,0,0)" stroke-width="1" opacity="0.48627450980392156" d="M 1434.5 783 L 1435 784.5 L 1433.5 787 L 1433 785.5 L 1434.5 783 Z " /><path fill="rgb(255,0,0)" stroke="rgb(255,0,0)" stroke-width="1" opacity="0.48627450980392156" d="M 1220.5 784 L 1223 790.5 L 1222 790.5 L 1220.5 784 Z " /><path fill="rgb(255,0,0)" stroke="rgb(255,0,0)" stroke-width="1" opacity="0.48627450980392156" d="M 2501.5 784 L 2502 788.5 L 2501 788.5 L 2501.5 784 Z " /><path fill="rgb(255,0,0)" stroke="rgb(255,0,0)" stroke-width="1" opacity="0.48627450980392156" d="M 2297.5 788 L 2298 790.5 L 2297 790.5 L 2297.5 788 Z " /><path fill="rgb(255,0,0)" stroke="rgb(255,0,0)" stroke-width="1" opacity="0.48627450980392156" d="M 2502.5 792 L 2503 795.5 L 2502 795.5 L 2502.5 792 Z " /><path fill="rgb(255,0,0)" stroke="rgb(255,0,0)" stroke-width="1" opacity="0.48627450980392156" d="M 2810.5 792 L 2811 797.5 L 2810 797.5 L 2810.5 792 Z " /><path fill="rgb(255,0,0)" stroke="rgb(255,0,0)" stroke-width="1" opacity="0.48627450980392156" d="M 2298.5 793 L 2299 795.5 L 2298 795.5 L 2298.5 793 Z " /><path fill="rgb(255,0,0)" stroke="rgb(255,0,0)" stroke-width="1" opacity="0.48627450980392156" d="M 1429.5 797 L 1430 798.5 L 1427.5 804 L 1427 802.5 L 1429.5 797 Z " /><path fill="rgb(255,0,0)" stroke="rgb(255,0,0)" stroke-width="1" opacity="0.48627450980392156" d="M 2299.5 797 L 2300 799.5 L 2299 799.5 L 2299.5 797 Z " /><path fill="rgb(255,0,0)" stroke="rgb(255,0,0)" stroke-width="1" opacity="0.48627450980392156" d="M 2503.5 798 L 2504 801.5 L 2503 801.5 L 2503.5 798 Z " /><path fill="rgb(255,0,0)" stroke="rgb(255,0,0)" stroke-width="1" opacity="0.48627450980392156" d="M 1226.5 801 L 1229 807.5 L 1228 807.5 L 1226.5 801 Z " /><path fill="rgb(255,0,0)" stroke="rgb(255,0,0)" stroke-width="1" opacity="0.48627450980392156" d="M 2300.5 801 L 2301 803.5 L 2300 803.5 L 2300.5 801 Z " /><path fill="rgb(255,0,0)" stroke="rgb(255,0,0)" stroke-width="1" opacity="0.48627450980392156" d="M 2809.5 801 L 2810 805.5 L 2809 805.5 L 2809.5 801 Z " /><path fill="rgb(255,0,0)" stroke="rgb(255,0,0)" stroke-width="1" opacity="0.48627450980392156" d="M 2504.5 804 L 2505 806.5 L 2504 806.5 L 2504.5 804 Z " /><path fill="rgb(255,0,0)" stroke="rgb(255,0,0)" stroke-width="1" opacity="0.48627450980392156" d="M 2301.5 805 L 2302 807.5 L 2301 807.5 L 2301.5 805 Z " /><path fill="rgb(255,0,0)" stroke="rgb(255,0,0)" stroke-width="1" opacity="0.48627450980392156" d="M 2302.5 809 L 2303 811.5 L 2302 811.5 L 2302.5 809 Z " /><path fill="rgb(255,0,0)" stroke="rgb(255,0,0)" stroke-width="1" opacity="0.48627450980392156" d="M 2505.5 809 L 2506 811.5 L 2505 811.5 L 2505.5 809 Z " /><path fill="rgb(255,0,0)" stroke="rgb(255,0,0)" stroke-width="1" opacity="0.48627450980392156" d="M 2808.5 809 L 2809 812.5 L 2808 812.5 L 2808.5 809 Z " /><path fill="rgb(255,0,0)" stroke="rgb(255,0,0)" stroke-width="1" opacity="0.48627450980392156" d="M 2506.5 813 L 2507 815.5 L 2506 815.5 L 2506.5 813 Z " /><path fill="rgb(255,0,0)" stroke="rgb(255,0,0)" stroke-width="1" opacity="0.48627450980392156" d="M 1423.5 814 L 1424 815.5 L 1421.5 821 L 1421 819.5 L 1423.5 814 Z " /><path fill="rgb(255,0,0)" stroke="rgb(255,0,0)" stroke-width="1" opacity="0.48627450980392156" d="M 2807.5 815 L 2808 818.5 L 2807 818.5 L 2807.5 815 Z " /><path fill="rgb(255,0,0)" stroke="rgb(255,0,0)" stroke-width="1" opacity="0.48627450980392156" d="M 2507.5 817 L 2508 819.5 L 2507 819.5 L 2507.5 817 Z " /><path fill="rgb(255,0,0)" stroke="rgb(255,0,0)" stroke-width="1" opacity="0.48627450980392156" d="M 1232.5 818 L 1234 821.5 L 1233 821.5 L 1232.5 818 Z " /><path fill="rgb(255,0,0)" stroke="rgb(255,0,0)" stroke-width="1" opacity="0.48627450980392156" d="M 2305.5 819 L 2309 829.5 L 2308 829.5 L 2305 821.5 L 2305.5 819 Z " /><path fill="rgb(255,0,0)" stroke="rgb(255,0,0)" stroke-width="1" opacity="0.48627450980392156" d="M 2806.5 821 L 2807 823.5 L 2806 823.5 L 2806.5 821 Z " /><path fill="rgb(255,0,0)" stroke="rgb(255,0,0)" stroke-width="1" opacity="0.48627450980392156" d="M 2648.5 822 L 2649 826.5 L 2648 826.5 L 2648.5 822 Z " /><path fill="rgb(255,0,0)" stroke="rgb(255,0,0)" stroke-width="1" opacity="0.48627450980392156" d="M 2805.5 826 L 2806 828.5 L 2805 828.5 L 2805.5 826 Z " /><path fill="rgb(255,0,0)" stroke="rgb(255,0,0)" stroke-width="1" opacity="0.48627450980392156" d="M 2647.5 829 L 2648 832.5 L 2647 832.5 L 2647.5 829 Z " /><path fill="rgb(255,0,0)" stroke="rgb(255,0,0)" stroke-width="1" opacity="0.48627450980392156" d="M 2511.5 830 L 2513 833.5 L 2512 833.5 L 2511.5 830 Z " /><path fill="rgb(255,0,0)" stroke="rgb(255,0,0)" stroke-width="1" opacity="0.48627450980392156" d="M 1417.5 831 L 1418 832.5 L 1416.5 835 L 1416 833.5 L 1417.5 831 Z " /><path fill="rgb(255,0,0)" stroke="rgb(255,0,0)" stroke-width="1" opacity="0.48627450980392156" d="M 2804.5 831 L 2805 833.5 L 2804 833.5 L 2804.5 831 Z " /><path fill="rgb(255,0,0)" stroke="rgb(255,0,0)" stroke-width="1" opacity="0.48627450980392156" d="M 1237.5 832 L 1240 838.5 L 1239 838.5 L 1237.5 832 Z " /><path fill="rgb(255,0,0)" stroke="rgb(255,0,0)" stroke-width="1" opacity="0.48627450980392156" d="M 2310.5 834 L 2312 837.5 L 2311 837.5 L 2310.5 834 Z " /><path fill="rgb(255,0,0)" stroke="rgb(255,0,0)" stroke-width="1" opacity="0.48627450980392156" d="M 2646.5 834 L 2647 836.5 L 2646 836.5 L 2646.5 834 Z " /><path fill="rgb(255,0,0)" stroke="rgb(255,0,0)" stroke-width="1" opacity="0.48627450980392156" d="M 2803.5 835 L 2804 837.5 L 2803 837.5 L 2803.5 835 Z " /><path fill="rgb(255,0,0)" stroke="rgb(255,0,0)" stroke-width="1" opacity="0.48627450980392156" d="M 2645.5 838 L 2646 840.5 L 2644.5 843 L 2644 841.5 L 2645.5 838 Z " /><path fill="rgb(255,0,0)" stroke="rgb(255,0,0)" stroke-width="1" opacity="0.48627450980392156" d="M 2312.5 839 L 2314 842.5 L 2313 842.5 L 2312.5 839 Z " /><path fill="rgb(255,0,0)" stroke="rgb(255,0,0)" stroke-width="1" opacity="0.48627450980392156" d="M 2517.5 843 L 2532.5 861 L 2537 864.5 L 2533.5 862 L 2524 853.5 L 2517.5 843 Z " /><path fill="rgb(255,0,0)" stroke="rgb(255,0,0)" stroke-width="1" opacity="0.48627450980392156" d="M 2314.5 844 L 2317 849.5 L 2316 849.5 L 2314.5 844 Z " /><path fill="rgb(255,0,0)" stroke="rgb(255,0,0)" stroke-width="1" opacity="0.48627450980392156" d="M 1412.5 845 L 1413 846.5 L 1410.5 852 L 1410 850.5 L 1412.5 845 Z " /><path fill="rgb(255,0,0)" stroke="rgb(255,0,0)" stroke-width="1" opacity="0.48627450980392156" d="M 1243.5 849 L 1246 855.5 L 1245 855.5 L 1243.5 849 Z " /><path fill="rgb(255,0,0)" stroke="rgb(255,0,0)" stroke-width="1" opacity="0.48627450980392156" d="M 2640.5 851 L 2640 852.5 L 2638.5 855 L 2639 853.5 L 2640.5 851 Z " /><path fill="rgb(255,0,0)" stroke="rgb(255,0,0)" stroke-width="1" opacity="0.48627450980392156" d="M 2637.5 856 L 2635.5 859 L 2637.5 856 Z " /><path fill="rgb(255,0,0)" stroke="rgb(255,0,0)" stroke-width="1" opacity="0.48627450980392156" d="M 2796.5 856 L 2797 857.5 L 2795.5 860 L 2795 858.5 L 2796.5 856 Z " /><path fill="rgb(255,0,0)" stroke="rgb(255,0,0)" stroke-width="1" opacity="0.48627450980392156" d="M 2634.5 860 L 2629.5 866 L 2623.5 870 L 2624.5 868 L 2634.5 860 Z " /><path fill="rgb(255,0,0)" stroke="rgb(255,0,0)" stroke-width="1" opacity="0.48627450980392156" d="M 1406.5 862 L 1407 863.5 L 1404.5 869 L 1404 867.5 L 1406.5 862 Z " /><path fill="rgb(255,0,0)" stroke="rgb(255,0,0)" stroke-width="1" opacity="0.48627450980392156" d="M 1468.5 863 L 1469 984.5 L 1468 984.5 L 1468.5 863 Z " /><path fill="rgb(255,0,0)" stroke="rgb(255,0,0)" stroke-width="1" opacity="0.48627450980392156" d="M 1717.5 863 L 1718 984.5 L 1717 984.5 L 1717.5 863 Z " /><path fill="rgb(255,0,0)" stroke="rgb(255,0,0)" stroke-width="1" opacity="0.48627450980392156" d="M 1868.5 863 L 1869 984.5 L 1868 984.5 L 1868.5 863 Z " /><path fill="rgb(255,0,0)" stroke="rgb(255,0,0)" stroke-width="1" opacity="0.48627450980392156" d="M 2136.5 863 L 2137 984.5 L 2136 984.5 L 2136.5 863 Z " /><path fill="rgb(255,0,0)" stroke="rgb(255,0,0)" stroke-width="1" opacity="0.48627450980392156" d="M 2793.5 863 L 2794 864.5 L 2787.5 876 L 2788 874.5 L 2793.5 863 Z " /><path fill="rgb(255,0,0)" stroke="rgb(255,0,0)" stroke-width="1" opacity="0.48627450980392156" d="M 2538.5 865 L 2539.5 867 L 2538.5 865 Z " /><path fill="rgb(255,0,0)" stroke="rgb(255,0,0)" stroke-width="1" opacity="0.48627450980392156" d="M 1249.5 866 L 1252 872.5 L 1251 872.5 L 1249.5 866 Z " /><path fill="rgb(255,0,0)" stroke="rgb(255,0,0)" stroke-width="1" opacity="0.48627450980392156" d="M 2325.5 867 L 2329 872.5 L 2327 871.5 L 2325.5 867 Z " /><path fill="rgb(255,0,0)" stroke="rgb(255,0,0)" stroke-width="1" opacity="0.48627450980392156" d="M 2541.5 867 L 2552 872.5 L 2550.5 873 L 2542.5 869 L 2541.5 867 Z " /><path fill="rgb(255,0,0)" stroke="rgb(255,0,0)" stroke-width="1" opacity="0.48627450980392156" d="M 2621.5 870 L 2620.5 872 L 2615.5 874 L 2615.5 873 L 2621.5 870 Z " /><path fill="rgb(255,0,0)" stroke="rgb(255,0,0)" stroke-width="1" opacity="0.48627450980392156" d="M 2553.5 873 L 2558 874.5 L 2555.5 875 L 2553.5 873 Z " /><path fill="rgb(255,0,0)" stroke="rgb(255,0,0)" stroke-width="1" opacity="0.48627450980392156" d="M 2330.5 876 L 2333 879.5 L 2331 878.5 L 2330.5 876 Z " /><path fill="rgb(255,0,0)" stroke="rgb(255,0,0)" stroke-width="1" opacity="0.48627450980392156" d="M 2562.5 876 L 2565 876.5 L 2562.5 877 L 2562.5 876 Z " /><path fill="rgb(255,0,0)" stroke="rgb(255,0,0)" stroke-width="1" opacity="0.48627450980392156" d="M 2605.5 876 L 2608 876.5 L 2605.5 877 L 2605.5 876 Z " /><path fill="rgb(255,0,0)" stroke="rgb(255,0,0)" stroke-width="1" opacity="0.48627450980392156" d="M 2567.5 877 L 2571 877.5 L 2567.5 878 L 2567.5 877 Z " /><path fill="rgb(255,0,0)" stroke="rgb(255,0,0)" stroke-width="1" opacity="0.48627450980392156" d="M 2599.5 877 L 2603 877.5 L 2599.5 878 L 2599.5 877 Z " /><path fill="rgb(255,0,0)" stroke="rgb(255,0,0)" stroke-width="1" opacity="0.48627450980392156" d="M 2574.5 878 L 2596 878.5 L 2574.5 879 L 2574.5 878 Z " /><path fill="rgb(255,0,0)" stroke="rgb(255,0,0)" stroke-width="1" opacity="0.48627450980392156" d="M 1400.5 879 L 1401 880.5 L 1398.5 886 L 1398 884.5 L 1400.5 879 Z " /><path fill="rgb(255,0,0)" stroke="rgb(255,0,0)" stroke-width="1" opacity="0.48627450980392156" d="M 2785.5 879 L 2785 880.5 L 2783.5 883 L 2784 881.5 L 2785.5 879 Z " /><path fill="rgb(255,0,0)" stroke="rgb(255,0,0)" stroke-width="1" opacity="0.48627450980392156" d="M 2333.5 881 L 2334.5 883 L 2333.5 881 Z " /><path fill="rgb(255,0,0)" stroke="rgb(255,0,0)" stroke-width="1" opacity="0.48627450980392156" d="M 1255.5 883 L 1257 886.5 L 1256 886.5 L 1255.5 883 Z " /><path fill="rgb(255,0,0)" stroke="rgb(255,0,0)" stroke-width="1" opacity="0.48627450980392156" d="M 2335.5 884 L 2343 894.5 L 2340 892.5 L 2335.5 884 Z " /><path fill="rgb(255,0,0)" stroke="rgb(255,0,0)" stroke-width="1" opacity="0.48627450980392156" d="M 2782.5 884 L 2782 885.5 L 2778.5 891 L 2779 889.5 L 2782.5 884 Z " /><path fill="rgb(255,0,0)" stroke="rgb(255,0,0)" stroke-width="1" opacity="0.48627450980392156" d="M 2777.5 892 L 2776 894.5 L 2771.5 901 L 2773 898.5 L 2777.5 892 Z " /><path fill="rgb(255,0,0)" stroke="rgb(255,0,0)" stroke-width="1" opacity="0.48627450980392156" d="M 1394.5 896 L 1395 897.5 L 1393.5 900 L 1393 898.5 L 1394.5 896 Z " /><path fill="rgb(255,0,0)" stroke="rgb(255,0,0)" stroke-width="1" opacity="0.48627450980392156" d="M 2343.5 896 L 2345.5 899 L 2343.5 896 Z " /><path fill="rgb(255,0,0)" stroke="rgb(255,0,0)" stroke-width="1" opacity="0.48627450980392156" d="M 1260.5 897 L 1263 903.5 L 1262 903.5 L 1260.5 897 Z " /><path fill="rgb(255,0,0)" stroke="rgb(255,0,0)" stroke-width="1" opacity="0.48627450980392156" d="M 2346.5 900 L 2354 908.5 L 2349 904.5 L 2346.5 900 Z " /><path fill="rgb(255,0,0)" stroke="rgb(255,0,0)" stroke-width="1" opacity="0.48627450980392156" d="M 2770.5 902 L 2768.5 905 L 2770.5 902 Z " /><path fill="rgb(255,0,0)" stroke="rgb(255,0,0)" stroke-width="1" opacity="0.48627450980392156" d="M 2767.5 906 L 2765 909.5 L 2760.5 915 L 2764 910.5 L 2767.5 906 Z " /><path fill="rgb(255,0,0)" stroke="rgb(255,0,0)" stroke-width="1" opacity="0.48627450980392156" d="M 1389.5 910 L 1390 911.5 L 1387.5 917 L 1387 915.5 L 1389.5 910 Z " /><path fill="rgb(255,0,0)" stroke="rgb(255,0,0)" stroke-width="1" opacity="0.48627450980392156" d="M 2354.5 910 L 2381 935.5 L 2376.5 932 L 2354.5 910 Z " /><path fill="rgb(255,0,0)" stroke="rgb(255,0,0)" stroke-width="1" opacity="0.48627450980392156" d="M 1266.5 914 L 1269 920.5 L 1268 920.5 L 1266.5 914 Z " /><path fill="rgb(255,0,0)" stroke="rgb(255,0,0)" stroke-width="1" opacity="0.48627450980392156" d="M 2759.5 916 L 2754.5 922 L 2759.5 916 Z " /><path fill="rgb(255,0,0)" stroke="rgb(255,0,0)" stroke-width="1" opacity="0.48627450980392156" d="M 2753.5 923 L 2738.5 939 L 2753.5 923 Z " /><path fill="rgb(255,0,0)" stroke="rgb(255,0,0)" stroke-width="1" opacity="0.48627450980392156" d="M 1383.5 927 L 1384 928.5 L 1381.5 934 L 1381 932.5 L 1383.5 927 Z " /><path fill="rgb(255,0,0)" stroke="rgb(255,0,0)" stroke-width="1" opacity="0.48627450980392156" d="M 1272.5 931 L 1275 937.5 L 1274 937.5 L 1272.5 931 Z " /><path fill="rgb(255,0,0)" stroke="rgb(255,0,0)" stroke-width="1" opacity="0.48627450980392156" d="M 2382.5 936 L 2401 949.5 L 2399.5 949 L 2385.5 940 L 2382.5 936 Z " /><path fill="rgb(255,0,0)" stroke="rgb(255,0,0)" stroke-width="1" opacity="0.48627450980392156" d="M 2736.5 939 L 2731.5 945 L 2723.5 951 L 2725.5 948 L 2736.5 939 Z " /><path fill="rgb(255,0,0)" stroke="rgb(255,0,0)" stroke-width="1" opacity="0.48627450980392156" d="M 1377.5 944 L 1378 945.5 L 1376.5 948 L 1376 946.5 L 1377.5 944 Z " /><path fill="rgb(255,0,0)" stroke="rgb(255,0,0)" stroke-width="1" opacity="0.48627450980392156" d="M 1278.5 948 L 1280 951.5 L 1279 951.5 L 1278.5 948 Z " /><path fill="rgb(255,0,0)" stroke="rgb(255,0,0)" stroke-width="1" opacity="0.48627450980392156" d="M 2402.5 950 L 2406 952.5 L 2404.5 952 L 2402.5 950 Z " /><path fill="rgb(255,0,0)" stroke="rgb(255,0,0)" stroke-width="1" opacity="0.48627450980392156" d="M 2721.5 951 L 2719.5 954 L 2711.5 959 L 2712.5 957 L 2721.5 951 Z " /><path fill="rgb(255,0,0)" stroke="rgb(255,0,0)" stroke-width="1" opacity="0.48627450980392156" d="M 2407.5 953 L 2413 956.5 L 2411.5 956 Q 2407.5 955.5 2407.5 953 Z " /><path fill="rgb(255,0,0)" stroke="rgb(255,0,0)" stroke-width="1" opacity="0.48627450980392156" d="M 1372.5 958 L 1373 959.5 L 1370.5 965 L 1370 963.5 L 1372.5 958 Z " /><path fill="rgb(255,0,0)" stroke="rgb(255,0,0)" stroke-width="1" opacity="0.48627450980392156" d="M 2709.5 959 L 2708.5 961 L 2709.5 959 Z " /><path fill="rgb(255,0,0)" stroke="rgb(255,0,0)" stroke-width="1" opacity="0.48627450980392156" d="M 2422.5 961 L 2428 963.5 L 2426.5 964 L 2422.5 962 L 2422.5 961 Z " /><path fill="rgb(255,0,0)" stroke="rgb(255,0,0)" stroke-width="1" opacity="0.48627450980392156" d="M 1283.5 962 L 1286 968.5 L 1285 968.5 L 1283.5 962 Z " /><path fill="rgb(255,0,0)" stroke="rgb(255,0,0)" stroke-width="1" opacity="0.48627450980392156" d="M 2704.5 962 L 2703.5 964 L 2699.5 966 L 2700.5 964 L 2704.5 962 Z " /><path fill="rgb(255,0,0)" stroke="rgb(255,0,0)" stroke-width="1" opacity="0.48627450980392156" d="M 2431.5 965 L 2435 966.5 L 2433.5 967 L 2431.5 965 Z " /><path fill="rgb(255,0,0)" stroke="rgb(255,0,0)" stroke-width="1" opacity="0.48627450980392156" d="M 2436.5 967 L 2440 968.5 L 2438.5 969 L 2436.5 967 Z " /><path fill="rgb(255,0,0)" stroke="rgb(255,0,0)" stroke-width="1" opacity="0.48627450980392156" d="M 2441.5 969 L 2445 970.5 L 2443.5 971 L 2441.5 969 Z " /><path fill="rgb(255,0,0)" stroke="rgb(255,0,0)" stroke-width="1" opacity="0.48627450980392156" d="M 2690.5 969 L 2692 969.5 L 2686.5 972 L 2686.5 971 L 2690.5 969 Z " /><path fill="rgb(255,0,0)" stroke="rgb(255,0,0)" stroke-width="1" opacity="0.48627450980392156" d="M 2452.5 973 L 2460 975.5 L 2457.5 976 L 2452.5 974 L 2452.5 973 Z " /><path fill="rgb(255,0,0)" stroke="rgb(255,0,0)" stroke-width="1" opacity="0.48627450980392156" d="M 1366.5 975 L 1367 976.5 L 1364.5 982 L 1364 980.5 L 1366.5 975 Z " /><path fill="rgb(255,0,0)" stroke="rgb(255,0,0)" stroke-width="1" opacity="0.48627450980392156" d="M 2673.5 976 L 2675 976.5 L 2661.5 981 L 2661.5 980 L 2673.5 976 Z " /><path fill="rgb(255,0,0)" stroke="rgb(255,0,0)" stroke-width="1" opacity="0.48627450980392156" d="M 1289.5 979 L 1292 984.5 L 1290 983.5 L 1289.5 979 Z " /><path fill="rgb(255,0,0)" stroke="rgb(255,0,0)" stroke-width="1" opacity="0.48627450980392156" d="M 2470.5 979 L 2473 979.5 L 2470.5 980 L 2470.5 979 Z " /><path fill="rgb(255,0,0)" stroke="rgb(255,0,0)" stroke-width="1" opacity="0.48627450980392156" d="M 2474.5 980 L 2477 980.5 L 2474.5 981 L 2474.5 980 Z " /><path fill="rgb(255,0,0)" stroke="rgb(255,0,0)" stroke-width="1" opacity="0.48627450980392156" d="M 2478.5 981 L 2481 981.5 L 2478.5 982 L 2478.5 981 Z " /><path fill="rgb(255,0,0)" stroke="rgb(255,0,0)" stroke-width="1" opacity="0.48627450980392156" d="M 2482.5 982 L 2485 982.5 L 2482.5 983 L 2482.5 982 Z " /><path fill="rgb(255,0,0)" stroke="rgb(255,0,0)" stroke-width="1" opacity="0.48627450980392156" d="M 2486.5 983 L 2489 983.5 L 2486.5 984 L 2486.5 983 Z " /><path fill="rgb(255,0,0)" stroke="rgb(255,0,0)" stroke-width="1" opacity="0.48627450980392156" d="M 2651.5 983 L 2654 983.5 L 2651.5 984 L 2651.5 983 Z " /><path fill="rgb(255,0,0)" stroke="rgb(255,0,0)" stroke-width="1" opacity="0.48627450980392156" d="M 2490.5 984 L 2493 984.5 L 2490.5 985 L 2490.5 984 Z " /><path fill="rgb(255,0,0)" stroke="rgb(255,0,0)" stroke-width="1" opacity="0.48627450980392156" d="M 2647.5 984 L 2650 984.5 L 2647.5 985 L 2647.5 984 Z " /><path fill="rgb(255,0,0)" stroke="rgb(255,0,0)" stroke-width="1" opacity="0.48627450980392156" d="M 2495.5 985 L 2498 985.5 L 2495.5 986 L 2495.5 985 Z " /><path fill="rgb(255,0,0)" stroke="rgb(255,0,0)" stroke-width="1" opacity="0.48627450980392156" d="M 2643.5 985 L 2646 985.5 L 2643.5 986 L 2643.5 985 Z " /><path fill="rgb(255,0,0)" stroke="rgb(255,0,0)" stroke-width="1" opacity="0.48627450980392156" d="M 2500.5 986 L 2503 986.5 L 2500.5 987 L 2500.5 986 Z " /><path fill="rgb(255,0,0)" stroke="rgb(255,0,0)" stroke-width="1" opacity="0.48627450980392156" d="M 2639.5 986 L 2642 986.5 L 2639.5 987 L 2639.5 986 Z " /><path fill="rgb(255,0,0)" stroke="rgb(255,0,0)" stroke-width="1" opacity="0.48627450980392156" d="M 2505.5 987 L 2509 987.5 L 2505.5 988 L 2505.5 987 Z " /><path fill="rgb(255,0,0)" stroke="rgb(255,0,0)" stroke-width="1" opacity="0.48627450980392156" d="M 2634.5 987 L 2637 987.5 L 2634.5 988 L 2634.5 987 Z " /><path fill="rgb(255,0,0)" stroke="rgb(255,0,0)" stroke-width="1" opacity="0.48627450980392156" d="M 2511.5 988 L 2515 988.5 L 2511.5 989 L 2511.5 988 Z " /><path fill="rgb(255,0,0)" stroke="rgb(255,0,0)" stroke-width="1" opacity="0.48627450980392156" d="M 2628.5 988 L 2632 988.5 L 2628.5 989 L 2628.5 988 Z " /><path fill="rgb(255,0,0)" stroke="rgb(255,0,0)" stroke-width="1" opacity="0.48627450980392156" d="M 2518.5 989 L 2522 989.5 L 2518.5 990 L 2518.5 989 Z " /><path fill="rgb(255,0,0)" stroke="rgb(255,0,0)" stroke-width="1" opacity="0.48627450980392156" d="M 2622.5 989 L 2626 989.5 L 2622.5 990 L 2622.5 989 Z " /><path fill="rgb(255,0,0)" stroke="rgb(255,0,0)" stroke-width="1" opacity="0.48627450980392156" d="M 2525.5 990 L 2530 990.5 L 2525.5 991 L 2525.5 990 Z " /><path fill="rgb(255,0,0)" stroke="rgb(255,0,0)" stroke-width="1" opacity="0.48627450980392156" d="M 2616.5 990 L 2620 990.5 L 2616.5 991 L 2616.5 990 Z " /><path fill="rgb(255,0,0)" stroke="rgb(255,0,0)" stroke-width="1" opacity="0.48627450980392156" d="M 2535.5 991 L 2541 991.5 L 2535.5 992 L 2535.5 991 Z " /><path fill="rgb(255,0,0)" stroke="rgb(255,0,0)" stroke-width="1" opacity="0.48627450980392156" d="M 2607.5 991 L 2612 991.5 L 2607.5 992 L 2607.5 991 Z " /><path fill="rgb(255,0,0)" stroke="rgb(255,0,0)" stroke-width="1" opacity="0.48627450980392156" d="M 2547.5 992 L 2556 992.5 L 2547.5 993 L 2547.5 992 Z " /><path fill="rgb(255,0,0)" stroke="rgb(255,0,0)" stroke-width="1" opacity="0.48627450980392156" d="M 2594.5 992 L 2602 992.5 L 2594.5 993 L 2594.5 992 Z " /><path fill="rgb(255,0,0)" stroke="rgb(255,0,0)" stroke-width="1" opacity="1" d="M 2526.5 466 L 2560.5 466 L 2561.5 467 L 2573.5 467 L 2574.5 468 L 2594.5 470 L 2615.5 475 Q 2637.4 481.6 2655.5 492 L 2680.5 511 L 2681 476 L 2796 476 L 2796 654 L 2682.5 654 L 2680 651.5 Q 2669.2 625.8 2649.5 609 Q 2634.8 596.2 2613.5 590 L 2596.5 587 L 2575.5 587 L 2558.5 590 L 2545.5 595 Q 2531.4 602.4 2522 614.5 L 2511 634.5 L 2506 650.5 L 2502 671.5 L 2501 687.5 L 2500 688.5 L 2500 701.5 L 2499 702.5 L 2499 765.5 L 2500 766.5 L 2500 778.5 L 2501 779.5 L 2501 788.5 L 2502 789.5 L 2503 801.5 L 2511 831.5 Q 2518.3 850.3 2532.5 862 Q 2544.7 872.3 2562.5 877 L 2573.5 878 L 2574.5 879 L 2595.5 879 L 2616.5 874 Q 2627.6 869.1 2635 860.5 Q 2642.1 852.1 2646 840.5 L 2649 826.5 Q 2648 816 2650 810 L 2601 810 L 2601 713 L 2813.5 713 L 2814 713.5 L 2814 741.5 L 2813 742.5 L 2813 766.5 L 2812 767.5 L 2812 780.5 L 2811 781.5 L 2809 808.5 L 2805 830.5 L 2798 853.5 Q 2775.9 904.4 2737.5 939 Q 2720 954.5 2698.5 966 L 2678.5 975 L 2654.5 983 L 2633.5 988 L 2628.5 988 L 2615.5 991 L 2607.5 991 L 2606.5 992 L 2594.5 992 L 2593.5 993 L 2556.5 993 L 2555.5 992 L 2541.5 992 L 2540.5 991 L 2522.5 990 L 2493.5 985 L 2469.5 979 L 2430.5 965 Q 2384.4 945.1 2354 909.5 Q 2320.1 869.4 2303 812.5 L 2298 792.5 L 2295 775.5 L 2295 768.5 L 2294 767.5 L 2293 743.5 L 2292 742.5 L 2292 716.5 L 2293 715.5 L 2293 700.5 L 2294 699.5 L 2294 690.5 L 2295 689.5 L 2297 670.5 L 2303 644.5 L 2311 620.5 Q 2330.7 571.7 2365.5 538 Q 2396.2 506.7 2438.5 487 L 2479.5 473 L 2499.5 469 L 2513.5 468 L 2514.5 467 L 2525.5 467 L 2526.5 466 Z " /><path fill="rgb(255,0,0)" stroke="rgb(255,0,0)" stroke-width="1" opacity="1" d="M 1001 476 L 1288.5 476 L 1289 478.5 L 1358.5 672 L 1365 657.5 L 1429 479.5 L 1431.5 476 L 1716 476 L 1716 598 L 1679.5 598 L 1679 598.5 L 1679 863 L 1716.5 863 L 1717 863.5 L 1717 985 L 1469 985 L 1469 863 L 1506.5 863 L 1507 862.5 L 1507 581.5 L 1505 582.5 L 1363 985 L 1292.5 985 L 1291 983.5 L 1149.5 584 L 1149 863 L 1186.5 863 L 1187 863.5 L 1187 985 L 1002 985 L 1002 863 L 1038.5 863 L 1039 862.5 L 1039 598 L 1001.5 598 L 1001 597.5 L 1001 476 Z " /><path fill="rgb(255,0,0)" stroke="rgb(255,0,0)" stroke-width="1" opacity="1" d="M 1766 476 L 2238 476 L 2238 691 L 2148 691 L 2148 598 L 2094 598 L 2094 862.5 L 2094.5 863 L 2136 863 L 2136 985 L 1869 985 L 1869 863 L 1909.5 863 L 1910 862.5 L 1910 598 L 1855 598 L 1855 691 L 1766 691 L 1766 476 Z " /></svg>